<?xml version="1.0" encoding="UTF-8"?>
<!-- Generated by Pixelmator Pro 3.7 -->
<svg width="800" height="800" viewBox="0 0 800 800" xmlns="http://www.w3.org/2000/svg">
    <path id="Path" fill="#e54059" fill-rule="evenodd" stroke="none" d="M 800 400 C 800 620.912048 620.912048 800.000061 400 800.000061 C 179.085983 800.000061 -4.6e-05 620.912048 -4.6e-05 400 C -4.6e-05 179.085999 179.085983 0 400 0 C 620.912048 0 800 179.085999 800 400 Z M 200.199982 280 C 200.199982 258 217.999969 240 239.999969 240 L 560 240 C 582 240 600.000061 258 600.000061 280 L 600.000061 520 C 600.000061 542 582 560 560 560 L 239.999969 560 C 217.999969 560 199.999969 542 199.999969 520 L 200.199982 280 Z M 400 420 L 240.000381 319.998779 L 240.000381 520 L 560 520 L 560 319.998779 L 400 420 Z M 400 380 L 240.000381 280.000366 L 560 280.000366 L 400 380 Z"/>
</svg>
