<svg width="800" height="800" viewBox="0 0 800 800" fill="none" xmlns="http://www.w3.org/2000/svg">
<g clip-path="url(#clip0_1_2)">
<path d="M400 0C179.083 0 0 179.083 0 400C0 620.917 179.083 800 400 800C620.917 800 800 620.917 800 400C800 179.083 620.917 0 400 0ZM553.833 451.292C553.833 451.292 589.208 486.208 597.917 502.417C598.167 502.75 598.292 503.083 598.375 503.25C601.917 509.208 602.75 513.833 601 517.292C598.083 523.042 588.083 525.875 584.667 526.125H522.167C517.833 526.125 508.75 525 497.75 517.417C489.292 511.5 480.958 501.792 472.833 492.333C460.708 478.25 450.208 466.083 439.625 466.083C438.281 466.081 436.945 466.292 435.667 466.708C427.667 469.292 417.417 480.708 417.417 511.125C417.417 520.625 409.917 526.083 404.625 526.083H376C366.25 526.083 315.458 522.667 270.458 475.208C215.375 417.083 165.792 300.5 165.375 299.417C162.25 291.875 168.708 287.833 175.75 287.833H238.875C247.292 287.833 250.042 292.958 251.958 297.5C254.208 302.792 262.458 323.833 276 347.5C297.958 386.083 311.417 401.75 322.208 401.75C324.232 401.726 326.219 401.211 328 400.25C342.083 392.417 339.458 342.208 338.833 331.792C338.833 329.833 338.792 309.333 331.583 299.5C326.417 292.375 317.625 289.667 312.292 288.667C314.45 285.688 317.294 283.273 320.583 281.625C330.25 276.792 347.667 276.083 364.958 276.083H374.583C393.333 276.333 398.167 277.542 404.958 279.25C418.708 282.542 419 291.417 417.792 321.792C417.417 330.417 417.042 340.167 417.042 351.667C417.042 354.167 416.917 356.833 416.917 359.667C416.5 375.125 416 392.667 426.917 399.875C428.341 400.768 429.986 401.244 431.667 401.25C435.458 401.25 446.875 401.25 477.792 348.208C487.326 331.136 495.612 313.395 502.583 295.125C503.208 294.042 505.042 290.708 507.208 289.417C508.807 288.601 510.58 288.187 512.375 288.208H586.583C594.667 288.208 600.208 289.417 601.25 292.542C603.083 297.5 600.917 312.625 567.042 358.5L551.917 378.458C521.208 418.708 521.208 420.75 553.833 451.292Z" fill="#E54059"/>
</g>
<defs>
<clipPath id="clip0_1_2">
<rect width="800" height="800" fill="white"/>
</clipPath>
</defs>
</svg>
