<?xml version="1.0" encoding="UTF-8" standalone="no"?>
<svg
   xmlns:dc="http://purl.org/dc/elements/1.1/"
   xmlns:cc="http://creativecommons.org/ns#"
   xmlns:rdf="http://www.w3.org/1999/02/22-rdf-syntax-ns#"
   xmlns:svg="http://www.w3.org/2000/svg"
   xmlns="http://www.w3.org/2000/svg"
   viewBox="0 0 227.45332 227.45332"
   height="227.45332"
   width="227.45332"
   xml:space="preserve"
   id="svg2"
   version="1.1"><metadata
     id="metadata8"><rdf:RDF><cc:Work
         rdf:about=""><dc:format>image/svg+xml</dc:format><dc:type
           rdf:resource="http://purl.org/dc/dcmitype/StillImage" /></cc:Work></rdf:RDF></metadata><defs
     id="defs6" /><g
     transform="matrix(1.3333333,0,0,-1.3333333,0,227.45333)"
     id="g10"><g
       transform="scale(0.1)"
       id="g12"><path
         id="path14"
         style="fill:#4b8978;fill-opacity:1;fill-rule:nonzero;stroke:none"
         d="M 1705.85,852.934 C 1705.85,381.871 1323.98,0 852.926,0 381.859,0 0,381.871 0,852.934 0,1324 381.859,1705.87 852.926,1705.87 c 471.054,0 852.924,-381.87 852.924,-852.936" /><path
         id="path16"
         style="fill:#fbc037;fill-opacity:1;fill-rule:nonzero;stroke:none"
         d="m 1504.78,855.59 c 0,-360 -291.85,-651.86 -651.858,-651.86 -360.008,0 -651.852,291.86 -651.852,651.86 0,360.01 291.844,651.86 651.852,651.86 360.008,0 651.858,-291.85 651.858,-651.86" /><path
         id="path18"
         style="fill:#ffffff;fill-opacity:1;fill-rule:nonzero;stroke:none"
         d="m 1399.11,855.59 c 0,-301.66 -244.53,-546.199 -546.2,-546.199 -301.637,0 -546.172,244.539 -546.172,546.199 0,301.68 244.535,546.21 546.172,546.21 301.67,0 546.2,-244.53 546.2,-546.21" /><path
         id="path20"
         style="fill:#ffffff;fill-opacity:1;fill-rule:nonzero;stroke:none"
         d="m 89.2383,598.012 -2.4102,1.457 -7.5547,25.672 c -5.0234,17.007 -7.2578,26.058 -6.7539,27.16 0.5157,1.121 4.0352,2.64 10.5469,4.558 4.9649,1.461 9.5391,3.141 13.7266,5.032 4.172,1.89 7.672,3.371 10.48,4.441 8.747,3.297 17.817,7.348 27.196,12.156 3.531,1.871 6.617,3.203 9.273,3.981 4.301,1.269 6.871,0.531 7.672,-2.239 0.633,-2.089 0.688,-3.46 0.207,-4.082 -0.469,-0.597 -2.031,-1.316 -4.691,-2.097 -3.414,-1 -6.832,-2.43 -10.25,-4.27 -2.602,-1.371 -6.649,-3.109 -12.153,-5.199 -5.492,-2.113 -8.738,-3.363 -9.699,-3.762 -9.84,-4.461 -18.5389,-7.929 -26.0975,-10.398 -2.8321,-0.953 -4.8125,-1.652 -5.9375,-2.09 -1.125,-0.461 -1.9141,-1.062 -2.3633,-1.793 -0.4453,-0.73 -0.4688,-1.758 -0.0781,-3.078 0.332,-1.109 0.9961,-2.762 2.0039,-4.992 1.0234,-2.219 1.8593,-4.43 2.5,-6.637 0.3008,-1 1.2031,-4.883 2.707,-11.621 0.2539,-1.262 0.5273,-2.609 0.8477,-4.082 0.3086,-1.469 0.5625,-2.609 0.7461,-3.469 0.1953,-0.84 0.3554,-1.539 0.5273,-2.09 0.4453,-1.55 1.1133,-2.558 1.9727,-3.031 1.1445,-0.617 5.3554,0.152 12.6327,2.301 8.52,2.5 15.047,4.781 19.586,6.84 11.809,5.16 20.797,8.652 26.977,10.468 4.976,1.473 8.234,1.821 9.769,1.082 1.5,-0.628 2.399,-1.39 2.649,-2.269 0.23,-0.781 0.082,-1.91 -0.446,-3.371 -0.324,-0.942 -1.148,-1.738 -2.469,-2.371 -1.304,-0.617 -5.41,-2.059 -12.3,-4.328 -4.461,-1.559 -10.996,-3.93 -19.594,-7.129 -8.602,-3.192 -16.422,-5.883 -23.449,-8.09 l -13.4807,-4.332 -2.293,1.672" /><path
         id="path22"
         style="fill:#ffffff;fill-opacity:1;fill-rule:nonzero;stroke:none"
         d="m 50.9883,745.398 c -1.1485,-3.91 -1.457,-7.554 -0.9297,-10.972 0.0898,-0.574 0.207,-0.906 0.3203,-0.996 0.2774,-0.207 1.2734,-3.301 3.0156,-9.325 1.3438,-4.218 2.2461,-6.898 2.7188,-8.058 0.4687,-1.145 1.2148,-1.984 2.2344,-2.535 1.5468,-1.043 3.8164,-1.328 6.7656,-0.871 3.0742,0.472 4.793,0.964 5.1953,1.48 0.8125,0.723 3.875,1.594 9.1953,2.649 14.2266,2.89 21.5431,4.894 21.9571,5.996 0.344,0.871 0.398,3.589 0.227,8.164 -0.184,4.574 -0.469,8.218 -0.895,10.949 -0.059,0.344 -0.148,0.746 -0.273,1.191 -0.118,0.438 -0.196,0.711 -0.207,0.84 -0.5982,2.348 -1.7427,4.789 -3.4067,7.336 -1.3868,2.227 -2.7383,3.645 -4.0704,4.266 -1.3164,0.621 -4.664,1.375 -10.0429,2.293 -5.6289,0.996 -10.2617,1.215 -13.8985,0.664 -2.164,-0.344 -4.1601,-0.996 -5.9961,-1.969 -2.0273,-1.137 -3.6679,-1.789 -4.9296,-1.984 -1.25,-0.207 -2.5782,-1.196 -3.9883,-2.985 -1.4102,-1.785 -2.4102,-3.84 -2.9922,-6.133 M 44.875,730.652 c -0.207,0.563 -0.4336,1.676 -0.6992,3.395 -0.961,6.262 -1.2617,10.812 -0.8828,13.656 0.1836,1.895 1.1718,4.195 2.957,6.926 1.7891,2.719 3.6719,4.859 5.6445,6.457 1.5703,1.18 2.9571,1.969 4.1719,2.383 1.2149,0.426 4.2188,1.008 9,1.742 6.9258,1.066 12.668,1.25 17.2109,0.551 4.8946,-0.883 8.9883,-2.051 12.2461,-3.532 l 5.043,-2.203 4.0706,-8.265 c 2.41,-5 3.773,-8.621 4.129,-10.903 0.285,-1.824 0.457,-3.359 0.539,-4.632 0.273,-4.153 0.55,-7.016 0.789,-8.61 0.277,-1.711 0.816,-2.972 1.64,-3.773 0.918,-0.664 1.844,-0.653 2.774,0.082 0.828,0.711 2.375,1.238 4.644,1.594 1.149,0.168 3.289,0.824 6.434,1.949 3.141,1.121 5.41,1.785 6.762,1.992 1.492,0.23 2.547,0.105 3.211,-0.375 0.918,-0.668 1.55,-2.148 1.906,-4.43 0.25,-1.582 0.113,-2.59 -0.414,-3.023 -0.403,-0.414 -3.395,-1.231 -8.965,-2.434 -5.586,-1.215 -8.59,-1.902 -9.023,-2.086 -1.504,-0.812 -9.723,-2.718 -24.6294,-5.711 -0.7813,-0.226 -4.8047,-1.375 -12.0625,-3.425 -7.2461,-2.043 -12.1758,-3.278 -14.8008,-3.688 l -5.7812,-1.059 -2.7852,2.2 c -3.4844,3.062 -5.9062,5.929 -7.2578,8.578 -1.3398,2.648 -3.2891,8.195 -5.8711,16.644" /><path
         id="path24"
         style="fill:#ffffff;fill-opacity:1;fill-rule:nonzero;stroke:none"
         d="m 47.3047,809.434 c -1.9609,0.07 -3.3594,0.484 -4.1875,1.273 -0.8242,0.781 -1.3047,3.988 -1.4649,9.633 l -0.3007,11.223 c -0.125,9.093 -0.1368,14.675 -0.0235,16.75 0.1289,2.078 0.5742,3.523 1.3672,4.359 1.0078,1.055 1.9727,1.316 2.9102,0.766 1.0429,-0.665 1.7539,-2.176 2.0976,-4.528 0.3555,-2.351 0.6446,-7.496 0.8516,-15.433 0.2734,-9.907 0.6992,-15.063 1.2812,-15.512 1.3985,-0.77 7.4532,-1.008 18.1641,-0.723 8.1641,0.219 12.5195,0.617 13.082,1.215 0.3438,0.356 0.4922,1.113 0.4571,2.258 -0.0235,0.918 -0.9493,9.644 -2.7735,26.187 -0.125,0.563 -0.207,1.309 -0.2304,2.239 -0.0352,1.488 0.2773,2.476 0.9648,2.957 0.7773,0.824 1.3984,1.25 1.8555,1.261 1.2734,0.036 2.5468,-2.5 3.8437,-7.589 1.2813,-5.082 1.9922,-10.559 2.1524,-16.442 0.207,-7.351 1.3984,-11.238 3.6015,-11.64 1.2735,-0.204 4.4375,-0.352 9.5159,-0.434 8.277,-0.125 14.297,-0.781 18.011,-1.938 0.344,-0.101 0.747,-0.148 1.208,-0.136 1.156,0.019 1.683,1.82 1.582,5.398 -0.012,0.676 -0.36,4.93 -1.036,12.75 -1.214,11.246 -2.086,17.91 -2.601,19.961 -0.379,1.262 -0.586,2.41 -0.606,3.441 -0.082,2.762 0.688,4.622 2.258,5.583 0.457,0.253 0.746,0.378 0.86,0.378 1.949,0.047 3.394,-2.168 4.308,-6.625 1.344,-6.652 2.285,-20.043 2.824,-40.175 0.125,-5.059 0.078,-7.707 -0.14,-7.946 -0.563,-0.703 -1.821,-0.562 -3.805,0.41 -1.523,0.782 -2.855,1.137 -4.012,1.114 -0.687,-0.024 -1.207,-0.106 -1.55,-0.219 -0.79,-0.25 -1.821,-0.402 -3.094,-0.434 -1.836,-0.046 -5.883,0.137 -12.11,0.539 -4.8472,0.333 -14.9137,0.411 -30.2222,0.239 -14.7461,-0.172 -23.0782,-0.231 -25.0391,-0.16" /><path
         id="path26"
         style="fill:#ffffff;fill-opacity:1;fill-rule:nonzero;stroke:none"
         d="m 110.555,931.145 c -0.45,0.054 -1.297,-0.231 -2.535,-0.836 -1.215,-0.621 -2.11,-0.895 -2.696,-0.84 -0.57,0.07 -3.265,-0.789 -8.1052,-2.555 -4.8243,-1.777 -8.0352,-2.582 -9.6524,-2.398 -1.4805,0.172 -2.9258,-0.309 -4.3242,-1.43 -1.3984,-1.125 -2.6719,-1.617 -3.8164,-1.481 -1.8242,0.208 -4.3125,-0.472 -7.4297,-2.042 -3.1406,-1.559 -4.7578,-2.911 -4.8828,-4.047 -0.1406,-1.145 0.3086,-1.832 1.3164,-2.063 5.1367,-1.73 15.4336,-3.476 30.8789,-5.195 l 6.1794,-0.699 20.098,-2.063 1.144,-2.055 c 0.782,-1.464 1.102,-2.66 1,-3.586 -0.218,-1.824 -1.445,-2.789 -3.714,-2.878 -2.27,-0.09 -9.125,0.445 -20.582,1.605 -14.9848,1.684 -23.8715,2.512 -26.6449,2.465 -0.711,-0.035 -1.7539,0.023 -3.1211,0.183 -1.9492,0.208 -3.2891,0.594 -4.0352,1.133 -1.4219,0.746 -5.5703,1.504 -12.4258,2.262 l -10.4453,1.352 -0.6328,2.156 c -0.2617,0.836 -0.332,1.664 -0.25,2.465 0.1133,1.019 0.7109,1.914 1.7734,2.66 1.0665,0.758 2.9493,1.676 5.6094,2.762 3.75,1.433 7.4063,3.05 10.9727,4.851 9.2422,4.871 15.8437,7.555 19.8359,8.035 3.5195,0.414 6.6602,1.043 9.4219,1.895 3.5898,1.097 6.2617,1.547 7.9688,1.363 1.605,-0.184 2.891,0.438 3.855,1.824 0.985,1.512 1.5,2.555 1.571,3.129 0.148,1.375 -1.078,2.785 -3.703,4.242 -2.067,1.149 -5.8481,2.993 -11.3637,5.528 -5.5039,2.535 -9.6562,4.816 -12.4414,6.867 -3.3242,2.34 -5.375,3.555 -6.1914,3.644 -1.0312,0.118 -6.3633,3.145 -16.0039,9.094 -2.8203,1.696 -5.1719,2.946 -7.0625,3.738 -0.8828,0.333 -1.7109,1.18 -2.4883,2.543 -0.7812,1.356 -1.1015,2.606 -0.9648,3.75 0.1015,0.918 0.5273,1.629 1.2734,2.122 2.0078,1.273 13.6875,0.722 35.0859,-1.672 21.2777,-2.387 35.5667,-3.004 42.8787,-1.848 0.711,0.148 1.641,0.16 2.785,0.035 1.606,-0.183 2.926,-0.769 3.981,-1.742 1.043,-0.988 1.504,-2.063 1.375,-3.211 -0.078,-0.676 -0.445,-1.457 -1.137,-2.305 -0.652,-0.722 -1.281,-1.179 -1.89,-1.339 -0.594,-0.172 -1.926,-0.141 -3.977,0.089 l -3.43,0.391 -3.093,0.344 c -3.317,0.367 -5.344,0.426 -6.055,0.16 -0.988,-0.469 -5.539,-0.25 -13.668,0.652 -7.0861,0.805 -11.8556,1.16 -14.297,1.078 -0.1055,0.012 -0.457,0.024 -1.0312,0.036 -0.5743,0 -1.0313,0.035 -1.3868,0.07 -2.1679,0.238 -4.3711,0.664 -6.6289,1.258 -2.7187,0.539 -4.3125,0.839 -4.7695,0.882 -2.625,0.301 -4.0352,-0.41 -4.2305,-2.128 -0.0937,-0.793 0.6289,-1.836 2.1797,-3.122 1.5235,-1.261 2.9219,-1.96 4.1836,-2.109 1.707,-0.195 6.6367,-2.762 14.7695,-7.738 2.3829,-1.535 4.9961,-2.903 7.875,-4.094 2.8791,-1.191 5.5271,-2.441 7.9221,-3.75 4.805,-2.625 8.199,-4.391 10.183,-5.309 5.5,-2.589 8.129,-4.906 7.899,-6.968 -0.254,-2.293 -1.926,-3.258 -5.024,-2.914 -1.593,0.183 -3.199,-0.161 -4.793,-1.032 -1.386,-0.882 -2.406,-1.296 -3.093,-1.214" /><path
         id="path28"
         style="fill:#ffffff;fill-opacity:1;fill-rule:nonzero;stroke:none"
         d="m 82.8867,1068.24 c -0.3203,1.04 -0.3906,2.01 -0.1719,2.89 0.3204,1.23 0.8711,1.98 1.6524,2.26 0.5469,0.34 5.7422,-0.73 15.5703,-3.19 l 10.8905,-2.74 c 19.09,-4.8 29.992,-7.42 32.735,-7.87 3.406,-0.63 5.214,-0.96 5.445,-1.02 1.547,-0.39 2.5,-1.09 2.844,-2.13 0.355,-0.92 0.437,-1.78 0.242,-2.56 -0.332,-1.34 -1.149,-2.44 -2.434,-3.3 -0.719,-0.53 -3.094,-0.29 -7.117,0.71 -4.691,1.18 -9.023,2.34 -13.027,3.45 -10.02,2.64 -17.532,4.83 -22.551,6.57 -0.527,0.24 -1.309,0.49 -2.317,0.75 -1.996,0.5 -3.117,0.31 -3.347,-0.59 -0.125,-0.56 0.023,-1.3 0.504,-2.26 0.675,-1.12 1.617,-2.3 2.843,-3.56 1.227,-1.25 2.719,-2.66 4.461,-4.23 1.731,-1.57 2.993,-2.74 3.739,-3.52 4.906,-5.04 13.812,-14.69 26.722,-28.97 3.352,-3.68 4.828,-6.32 4.442,-7.87 -0.094,-0.35 -0.219,-0.61 -0.379,-0.8 -0.586,-0.92 -1.824,-1.14 -3.727,-0.67 -2.121,0.54 -3.703,0.63 -4.734,0.3 -1.652,-0.41 -8.27,0.65 -19.848,3.2 -1.226,0.32 -7.246,1.65 -18.0467,4 l -2.8437,0.72 c -12.9453,3.26 -20.1133,5.7 -21.4766,7.35 -0.4453,0.59 -0.539,1.38 -0.2968,2.39 0.2617,1 0.7109,1.83 1.3515,2.51 0.6094,0.56 2.4102,0.58 5.3555,0.08 2.957,-0.51 10.8906,-2.27 23.7888,-5.26 14.344,-3.36 21.981,-4.88 22.899,-4.51 0.781,0.29 1.25,0.76 1.422,1.42 0.308,1.24 -0.278,2.44 -1.754,3.65 -0.278,0.31 -1.618,1.83 -4.012,4.57 -2.398,2.73 -4.164,4.49 -5.277,5.24 -2.028,1.33 -4.231,3.44 -6.602,6.29 -1.766,1.98 -4.23,4.44 -7.406,7.37 -3.1799,2.93 -5.9533,5.83 -8.3244,8.68 -1.3438,1.77 -3.3164,3.62 -5.8946,5.58 -3.1093,2.31 -4.875,4 -5.3203,5.07" /><path
         id="path30"
         style="fill:#ffffff;fill-opacity:1;fill-rule:nonzero;stroke:none"
         d="m 112.84,1156.28 c -0.219,1.06 -0.16,2.02 0.172,2.89 0.449,1.17 1.066,1.85 1.879,2.05 0.586,0.26 5.632,-1.39 15.101,-4.96 l 10.492,-3.98 c 18.422,-6.95 28.961,-10.82 31.621,-11.57 3.313,-1.01 5.079,-1.55 5.297,-1.63 1.512,-0.57 2.364,-1.39 2.571,-2.45 0.261,-0.97 0.238,-1.81 -0.035,-2.56 -0.485,-1.31 -1.422,-2.3 -2.809,-3.02 -0.77,-0.43 -3.098,0.08 -6.984,1.54 -4.516,1.71 -8.704,3.35 -12.532,4.92 -9.652,3.76 -16.867,6.8 -21.66,9.1 -0.492,0.32 -1.238,0.66 -2.199,1.02 -1.949,0.74 -3.074,0.67 -3.406,-0.19 -0.196,-0.54 -0.114,-1.31 0.242,-2.31 0.539,-1.19 1.34,-2.47 2.418,-3.86 1.078,-1.4 2.383,-2.96 3.945,-4.72 1.547,-1.76 2.649,-3.07 3.313,-3.92 4.3,-5.58 12.027,-16.19 23.218,-31.86 2.899,-4.04 4.059,-6.83 3.496,-8.32 -0.125,-0.33 -0.277,-0.59 -0.46,-0.76 -0.7,-0.85 -1.946,-0.92 -3.782,-0.23 -2.054,0.77 -3.613,1.05 -4.679,0.84 -1.672,-0.23 -8.129,1.61 -19.34,5.46 -1.184,0.46 -7.008,2.46 -17.477,6.05 l -2.738,1.05 c -12.484,4.71 -19.3087,7.96 -20.4884,9.75 -0.3672,0.64 -0.3672,1.45 -0.0117,2.41 0.3672,0.98 0.9063,1.75 1.6289,2.34 0.6762,0.48 2.4532,0.31 5.3322,-0.54 2.875,-0.84 10.547,-3.48 23.008,-7.96 13.875,-4.98 21.281,-7.36 22.246,-7.09 0.801,0.18 1.328,0.59 1.57,1.23 0.457,1.2 0,2.47 -1.32,3.82 -0.239,0.36 -1.399,2.01 -3.473,5.01 -2.055,3.01 -3.601,4.93 -4.621,5.81 -1.879,1.57 -3.816,3.91 -5.859,7.01 -1.5,2.17 -3.68,4.9 -6.5,8.18 -2.821,3.28 -5.243,6.46 -7.27,9.58 -1.125,1.91 -2.867,3.97 -5.219,6.22 -2.808,2.64 -4.379,4.54 -4.687,5.65" /><path
         id="path32"
         style="fill:#ffffff;fill-opacity:1;fill-rule:nonzero;stroke:none"
         d="m 157.973,1263.06 -0.481,2.78 14.469,22.52 c 9.574,14.91 14.941,22.55 16.121,22.88 1.18,0.33 4.621,-1.32 10.332,-4.99 4.356,-2.8 8.621,-5.17 12.793,-7.08 4.176,-1.93 7.578,-3.6 10.219,-5.03 8.219,-4.44 17.207,-8.65 27,-12.6 3.715,-1.44 6.754,-2.91 9.082,-4.39 3.769,-2.42 4.871,-4.85 3.324,-7.26 -1.18,-1.85 -2.168,-2.79 -2.945,-2.84 -0.782,-0.04 -2.328,0.68 -4.657,2.17 -3.003,1.92 -6.32,3.59 -9.964,4.95 -2.727,1.07 -6.696,3 -11.879,5.79 -5.18,2.78 -8.242,4.4 -9.172,4.85 -9.824,4.53 -18.137,8.84 -24.938,12.94 -2.589,1.52 -4.414,2.57 -5.504,3.11 -1.078,0.57 -2.027,0.76 -2.875,0.64 -0.851,-0.15 -1.64,-0.81 -2.386,-1.96 -0.617,-0.98 -1.446,-2.57 -2.465,-4.79 -0.996,-2.23 -2.133,-4.3 -3.383,-6.23 -0.551,-0.88 -2.891,-4.11 -7.016,-9.66 -0.769,-1 -1.617,-2.12 -2.535,-3.3 -0.894,-1.2 -1.605,-2.15 -2.121,-2.84 -0.515,-0.7 -0.929,-1.3 -1.238,-1.78 -0.871,-1.35 -1.203,-2.5 -0.984,-3.45 0.273,-1.28 3.597,-3.97 9.996,-8.07 7.464,-4.78 13.461,-8.24 18,-10.32 11.629,-5.55 20.144,-10.07 25.558,-13.54 4.367,-2.81 6.766,-5.04 7.211,-6.68 0.504,-1.56 0.504,-2.72 0.012,-3.49 -0.434,-0.69 -1.375,-1.31 -2.844,-1.87 -0.918,-0.37 -2.039,-0.27 -3.383,0.32 -1.328,0.59 -5.113,2.73 -11.34,6.46 -4.089,2.36 -10.167,5.74 -18.207,10.14 -8.046,4.42 -15.191,8.56 -21.453,12.44 l -12.105,7.36 -0.242,2.82" /><path
         id="path34"
         style="fill:#ffffff;fill-opacity:1;fill-rule:nonzero;stroke:none"
         d="m 244.414,1388.45 c -3.703,-1.68 -6.676,-3.84 -8.91,-6.47 -0.391,-0.45 -0.551,-0.75 -0.539,-0.91 0.023,-0.33 -1.676,-3.11 -5.09,-8.37 -2.305,-3.77 -3.738,-6.22 -4.312,-7.32 -0.551,-1.1 -0.711,-2.23 -0.469,-3.35 0.242,-1.86 1.492,-3.76 3.785,-5.7 2.359,-2.02 3.863,-3 4.516,-2.95 1.078,-0.15 3.738,-1.9 8.015,-5.22 11.488,-8.88 17.793,-13.1 18.906,-12.68 0.872,0.31 2.969,2.04 6.305,5.16 3.348,3.13 5.918,5.74 7.707,7.85 0.227,0.25 0.457,0.57 0.723,0.97 0.25,0.38 0.41,0.62 0.492,0.72 1.398,1.98 2.512,4.45 3.324,7.37 0.781,2.5 0.977,4.46 0.574,5.86 -0.402,1.38 -2.019,4.42 -4.839,9.1 -2.922,4.91 -5.789,8.55 -8.598,10.94 -1.664,1.42 -3.465,2.5 -5.414,3.24 -2.18,0.81 -3.762,1.62 -4.723,2.44 -0.965,0.82 -2.59,1.17 -4.859,1.07 -2.285,-0.09 -4.473,-0.68 -6.594,-1.75 m -15.148,-5.01 c 0.277,0.5 0.988,1.43 2.097,2.74 4.106,4.82 7.364,8.02 9.758,9.61 1.551,1.1 3.945,1.86 7.168,2.29 3.234,0.42 6.09,0.4 8.574,-0.05 1.914,-0.42 3.43,-0.95 4.532,-1.6 1.121,-0.63 3.519,-2.53 7.199,-5.67 5.355,-4.54 9.242,-8.76 11.683,-12.64 2.559,-4.29 4.332,-8.14 5.344,-11.58 l 1.641,-5.25 -3.602,-8.5 c -2.215,-5.09 -4.058,-8.5 -5.551,-10.25 -1.179,-1.4 -2.234,-2.56 -3.14,-3.44 -2.957,-2.94 -4.953,-5.01 -5.985,-6.24 -1.125,-1.32 -1.718,-2.54 -1.8,-3.69 0.089,-1.15 0.722,-1.82 1.879,-2.06 1.078,-0.15 2.488,-0.99 4.253,-2.47 0.872,-0.76 2.766,-1.94 5.676,-3.59 2.914,-1.64 4.887,-2.91 5.942,-3.8 1.144,-0.98 1.742,-1.86 1.796,-2.68 0.094,-1.13 -0.593,-2.57 -2.085,-4.33 -1.055,-1.24 -1.903,-1.79 -2.567,-1.69 -0.574,0.05 -3.14,1.78 -7.707,5.21 -4.562,3.43 -7.062,5.24 -7.484,5.46 -1.606,0.6 -8.407,5.57 -20.422,14.89 -0.699,0.44 -4.184,2.72 -10.481,6.87 -6.293,4.15 -10.445,7.09 -12.461,8.79 l -4.597,3.67 -0.149,3.54 c 0.032,4.66 0.606,8.36 1.731,11.11 1.133,2.75 4.047,7.86 8.758,15.35" /><path
         id="path36"
         style="fill:#ffffff;fill-opacity:1;fill-rule:nonzero;stroke:none"
         d="m 322.871,1462.23 c -0.883,0.15 -1.504,0.07 -1.848,-0.24 -0.96,-0.82 -0.64,-4.88 0.954,-12.19 0.367,-1.66 0.871,-3.5 1.5,-5.55 0.621,-2.04 1.089,-3.77 1.398,-5.18 0.059,-1.46 0.426,-2.6 1.102,-3.38 0.457,-0.51 0.894,-1.82 1.308,-3.89 0.125,-1.73 0.973,-4.65 2.543,-8.76 0.485,-1.25 1.309,-3.52 2.453,-6.78 1.16,-3.27 1.86,-5.24 2.145,-5.9 1.32,-4.34 2.281,-6.86 2.89,-7.56 0.977,-1.13 2.375,-0.91 4.207,0.67 1.297,1.14 2.293,2.54 2.993,4.19 0.847,1.66 2.937,3.91 6.25,6.77 2.867,2.49 4.769,4.52 5.699,6.08 0.379,0.79 4.082,4.52 11.086,11.2 6.476,6.06 9.746,9.58 9.828,10.55 0.008,0.15 -0.106,0.37 -0.324,0.63 -1.957,2.27 -6.133,3.91 -12.496,4.94 -2.59,0.35 -5.411,1.33 -8.485,2.95 -3.691,1.97 -7.75,3.24 -12.211,3.82 -1.617,0.27 -5.355,1.52 -11.226,3.75 z m 76.473,-29.28 c -0.367,0.44 -2.016,1.19 -4.918,2.27 -2.903,1.05 -4.492,1.76 -4.805,2.11 -0.379,0.44 -1.203,0.71 -2.508,0.79 -0.965,0.07 -3.121,-1.32 -6.422,-4.18 -0.527,-0.45 -3.839,-3.48 -9.964,-9.07 -9.516,-8.71 -14.7,-13.88 -15.571,-15.53 -0.746,-1.41 -2.855,-3.91 -6.281,-7.51 -4.934,-5.02 -7.121,-8.58 -6.535,-10.65 0.344,-1.09 1.008,-3.02 2.039,-5.78 1.984,-5.29 2.019,-8.76 0.101,-10.41 -0.871,-0.77 -1.89,-1.11 -3.082,-1.06 -1.168,0.04 -2.062,0.41 -2.66,1.11 -0.23,0.25 -0.379,0.5 -0.437,0.75 -0.985,2.19 -2.235,5.92 -3.727,11.17 -1.969,6.51 -3.082,9.9 -3.312,10.15 -0.379,0.43 -0.985,2.12 -1.832,5.03 -0.301,1.57 -1.403,4.95 -3.305,10.16 -6.406,17.43 -10.156,29.5 -11.211,36.18 -0.348,2.14 -0.93,4.15 -1.777,6 -0.711,1.36 -1.379,3.54 -1.973,6.52 -0.609,2.98 -0.769,4.74 -0.48,5.29 0.386,0.79 0.925,1.48 1.613,2.09 1.57,1.35 3.324,1.96 5.277,1.82 5.836,-0.58 13.449,-2.6 22.817,-6.05 2.851,-1.19 6.293,-2.25 10.304,-3.19 2.731,-0.53 4.633,-1.24 5.723,-2.13 1.09,-0.74 3.141,-1.61 6.168,-2.65 1.191,-0.33 6.801,-2.49 16.797,-6.48 10,-3.98 15.871,-6.12 17.66,-6.41 1.926,-0.31 4.355,-1.18 7.277,-2.61 2.903,-1.43 4.817,-2.67 5.723,-3.72 1.434,-1.66 1.227,-3.26 -0.598,-4.86 -1.66,-1.42 -3.691,-1.81 -6.074,-1.14 -1.859,0.37 -3.199,1.04 -4.027,1.99" /><path
         id="path38"
         style="fill:#ffffff;fill-opacity:1;fill-rule:nonzero;stroke:none"
         d="m 453.66,1505.38 c -1.582,0.75 -3.797,0.84 -6.629,0.26 -2.832,-0.57 -5.273,-1.51 -7.312,-2.84 -2.754,-1.89 -5.586,-4.07 -8.508,-6.55 -2.926,-2.48 -4.508,-4.07 -4.734,-4.77 -0.301,-0.61 0.113,-1.77 1.214,-3.52 0.504,-0.78 3.473,-4.89 8.918,-12.34 4.403,-6.05 7.246,-9.3 8.477,-9.73 1.144,-0.51 2.293,-0.39 3.461,0.35 1.156,0.74 2.187,1.48 3.105,2.19 9.403,7.09 14.231,13.75 14.516,19.94 0.023,1.24 -0.332,2.43 -1.078,3.6 -0.629,0.98 -2.004,2.82 -4.149,5.54 -3.714,4.75 -6.136,7.36 -7.281,7.87 m -31.14,31.73 c -2.489,0.03 -5.883,-1.17 -10.18,-3.63 -1.219,-0.64 -2.606,-1.47 -4.164,-2.47 -2.121,-1.36 -3.531,-3 -4.207,-4.94 -0.414,-1.08 0.746,-3.75 3.484,-8.03 2.785,-4.35 5.035,-7.36 6.766,-8.99 1.031,-0.97 1.836,-1.9 2.394,-2.77 0.496,-0.77 0.942,-1.79 1.332,-3.05 0.594,-2.21 1.571,-3.42 2.946,-3.64 0.953,-0.2 1.711,-0.13 2.304,0.25 0.575,0.36 1.641,1.26 3.211,2.66 3.899,3.72 6.434,6.39 7.567,8.01 1.16,1.63 1.906,3.77 2.25,6.45 0.777,5.84 0.57,9.67 -0.598,11.52 -0.562,0.87 -1.043,1.5 -1.445,1.94 -3.621,4.38 -7.508,6.61 -11.66,6.69 m -24.25,-5.66 c 1.511,1.91 4.781,4.49 9.824,7.71 4.371,2.79 7.754,4.54 10.16,5.27 2.73,0.64 6.18,0.37 10.332,-0.78 4,-1.14 6.707,-2.17 8.129,-3.11 1.422,-0.94 2.933,-2.66 4.551,-5.18 1.547,-2.43 2.476,-4.57 2.773,-6.42 0.301,-1.86 0.149,-4.9 -0.445,-9.1 -0.551,-3.63 -0.574,-5.83 -0.082,-6.6 0.254,-0.4 2.121,-0.44 5.605,-0.11 3.211,0.53 5.793,0.21 7.789,-0.97 2.211,-1.33 3.598,-2.42 4.16,-3.29 0.86,-1.36 1.766,-2.35 2.719,-2.98 2.524,-1.8 4.676,-4.1 6.465,-6.93 0.438,-0.67 0.805,-1.46 1.113,-2.37 0.539,-1.7 1.09,-3.2 1.641,-4.48 0.629,-1.64 0.48,-4.09 -0.449,-7.35 -0.918,-3.24 -2.176,-5.87 -3.782,-7.84 -0.918,-1.14 -2.226,-2.93 -3.933,-5.39 -0.699,-1.27 -3.293,-3.84 -7.774,-7.73 -4.484,-3.89 -8.027,-6.67 -10.652,-8.35 -0.184,-0.11 -0.469,-0.26 -0.836,-0.43 -0.379,-0.16 -0.621,-0.29 -0.711,-0.34 -1.746,-0.7 -3.133,-0.81 -4.199,-0.33 -1.066,0.49 -2.359,1.94 -3.922,4.37 -1.226,1.94 -2.199,3.56 -2.91,4.89 -2.039,3.62 -3.828,6.64 -5.379,9.05 -1.742,2.72 -4.344,6.66 -7.84,11.8 -3.5,5.15 -5.871,8.69 -7.097,10.63 -4.196,5.92 -7.868,11.23 -10.997,15.91 l -6.937,9.91 0.207,3.83 c 0.094,2.65 0.906,4.89 2.477,6.71" /><path
         id="path40"
         style="fill:#ffffff;fill-opacity:1;fill-rule:nonzero;stroke:none"
         d="m 520.438,1581.04 c 0.574,0.92 1.273,1.59 2.109,1.99 1.137,0.56 2.055,0.63 2.777,0.19 0.606,-0.2 3.141,-4.86 7.578,-13.96 l 4.918,-10.09 c 8.621,-17.71 13.633,-27.74 15.055,-30.12 1.719,-3.01 2.637,-4.61 2.73,-4.82 0.711,-1.46 0.766,-2.64 0.192,-3.57 -0.469,-0.86 -1.074,-1.47 -1.785,-1.82 -1.25,-0.61 -2.617,-0.69 -4.106,-0.26 -0.871,0.21 -2.215,2.18 -4.023,5.9 -2.121,4.35 -4.039,8.41 -5.746,12.19 -4.438,9.36 -7.602,16.52 -9.504,21.49 -0.153,0.56 -0.449,1.32 -0.906,2.25 -0.918,1.85 -1.778,2.59 -2.606,2.18 -0.523,-0.25 -0.996,-0.87 -1.406,-1.84 -0.426,-1.23 -0.735,-2.72 -0.895,-4.46 -0.183,-1.75 -0.312,-3.8 -0.371,-6.13 -0.078,-2.34 -0.179,-4.06 -0.297,-5.14 -0.687,-7 -2.336,-20.03 -4.953,-39.11 -0.664,-4.92 -1.73,-7.75 -3.176,-8.45 -0.308,-0.16 -0.593,-0.23 -0.847,-0.23 -1.09,-0.14 -2.063,0.66 -2.91,2.42 -0.965,1.97 -1.907,3.24 -2.825,3.81 -1.375,0.99 -4.824,6.75 -10.316,17.26 -0.551,1.14 -3.406,6.6 -8.555,16.39 l -1.297,2.62 c -5.843,12 -8.574,19.07 -8.195,21.18 0.16,0.72 0.711,1.3 1.641,1.75 0.926,0.46 1.855,0.66 2.785,0.59 0.824,-0.12 1.992,-1.46 3.519,-4.05 1.512,-2.59 5.274,-9.79 11.27,-21.58 6.66,-13.15 10.422,-19.95 11.305,-20.42 0.711,-0.42 1.386,-0.48 1.996,-0.18 1.144,0.55 1.699,1.78 1.664,3.68 0.055,0.41 0.367,2.42 0.918,6.03 0.547,3.59 0.754,6.06 0.617,7.4 -0.301,2.42 -0.105,5.45 0.551,9.1 0.39,2.63 0.687,6.09 0.883,10.42 0.195,4.32 0.617,8.3 1.285,11.95 0.48,2.17 0.64,4.86 0.468,8.11 -0.23,3.86 -0.07,6.3 0.458,7.33" /><path
         id="path42"
         style="fill:#ffffff;fill-opacity:1;fill-rule:nonzero;stroke:none"
         d="m 564.723,1612.15 c 0.906,0.9 2.898,1.94 5.972,3.09 3.075,1.15 11.535,4.05 25.399,8.69 19.433,6.53 29.785,9.7 31.047,9.51 0.988,-0.03 1.629,-0.49 1.914,-1.37 0.55,-1.62 -0.309,-3.55 -2.602,-5.78 -0.551,-0.54 -1.754,-1.13 -3.601,-1.76 -1.969,-0.65 -5.079,-1.51 -9.332,-2.58 -4.254,-1.06 -7.868,-2.09 -10.813,-3.07 -1.629,-0.55 -2.531,-0.92 -2.727,-1.1 l -1.789,-1.15 2.465,-6.82 c 3.922,-10.23 6.227,-16.19 6.914,-17.9 2.555,-6.91 4.344,-10.98 5.364,-12.22 0.746,-0.73 2.339,-3.98 4.828,-9.77 2.488,-5.78 4.586,-11.04 6.316,-15.81 l 1.043,-3.12 c 0.906,-2.72 1.102,-4.6 0.598,-5.62 -0.711,-1.45 -2.063,-2.52 -4.024,-3.17 -1.32,-0.45 -2.351,-0.43 -3.121,0.04 -0.687,0.62 -3.195,6.64 -7.508,18.07 -2.82,7.66 -5.824,15.1 -9.023,22.28 -3.188,7.19 -6.867,16.58 -10.996,28.18 -0.664,1.98 -1.422,3.17 -2.293,3.6 -0.883,0.44 -2.406,0.29 -4.598,-0.44 -0.758,-0.26 -2.738,-1.05 -5.937,-2.37 -3.785,-1.74 -6.879,-3.02 -9.289,-3.83 -2.18,-0.73 -3.774,-0.84 -4.805,-0.34 -0.789,0.59 -1.25,1.04 -1.363,1.36 -0.254,0.77 0.402,1.89 1.961,3.4" /><path
         id="path44"
         style="fill:#ffffff;fill-opacity:1;fill-rule:nonzero;stroke:none"
         d="m 1086.08,1630.11 c 1.27,0.17 3.49,-0.23 6.62,-1.2 3.15,-0.95 11.62,-3.81 25.44,-8.59 19.36,-6.69 29.5,-10.5 30.39,-11.41 0.77,-0.62 0.99,-1.38 0.7,-2.25 -0.57,-1.63 -2.44,-2.62 -5.6,-2.99 -0.77,-0.09 -2.08,0.17 -3.92,0.81 -1.97,0.67 -4.96,1.9 -8.98,3.64 -4.03,1.75 -7.5,3.14 -10.45,4.15 -1.61,0.56 -2.57,0.84 -2.83,0.8 l -2.12,0.18 -2.2,-6.9 c -3.13,-10.49 -4.94,-16.62 -5.44,-18.41 -2.2,-7.03 -3.25,-11.35 -3.2,-12.96 0.13,-1.01 -0.57,-4.57 -2.13,-10.67 -1.56,-6.1 -3.12,-11.57 -4.65,-16.39 l -1.07,-3.09 c -0.94,-2.73 -1.93,-4.34 -2.95,-4.84 -1.46,-0.71 -3.17,-0.74 -5.13,-0.05 -1.31,0.45 -2.12,1.09 -2.43,1.94 -0.19,0.91 1.51,7.2 5.05,18.89 2.45,7.8 4.6,15.52 6.45,23.17 1.84,7.63 4.66,17.31 8.47,29.02 0.68,1.97 0.79,3.39 0.37,4.27 -0.43,0.87 -1.72,1.69 -3.91,2.45 -0.76,0.25 -2.81,0.84 -6.15,1.75 -4.06,0.92 -7.29,1.79 -9.68,2.61 -2.19,0.76 -3.52,1.64 -4.02,2.66 -0.28,0.95 -0.36,1.6 -0.24,1.92 0.25,0.77 1.47,1.26 3.61,1.49" /><path
         id="path46"
         style="fill:#ffffff;fill-opacity:1;fill-rule:nonzero;stroke:none"
         d="m 1216.64,1573.88 c -1.23,2.15 -4.03,4.44 -8.35,6.85 -1.18,0.72 -2.6,1.49 -4.25,2.31 -2.27,1.12 -4.41,1.49 -6.41,1.07 -1.14,-0.21 -2.82,-2.59 -5.09,-7.13 -2.31,-4.63 -3.72,-8.1 -4.22,-10.42 -0.3,-1.4 -0.69,-2.54 -1.15,-3.47 -0.41,-0.84 -1.05,-1.73 -1.93,-2.71 -1.59,-1.65 -2.13,-3.12 -1.61,-4.41 0.31,-0.93 0.77,-1.54 1.38,-1.85 0.64,-0.31 1.94,-0.77 3.95,-1.39 5.2,-1.42 8.8,-2.21 10.78,-2.37 1.98,-0.14 4.22,0.33 6.67,1.41 5.4,2.32 8.59,4.47 9.56,6.43 0.46,0.93 0.78,1.67 0.93,2.24 1.89,5.35 1.81,9.84 -0.26,13.44 m -11.19,-43.03 c -0.15,1.74 -1.22,3.68 -3.18,5.82 -1.96,2.12 -4.02,3.74 -6.18,4.81 -3.05,1.38 -6.39,2.69 -10.01,3.93 -3.62,1.22 -5.81,1.75 -6.52,1.59 -0.68,-0.04 -1.47,-1 -2.39,-2.86 -0.42,-0.82 -2.42,-5.47 -6.01,-13.98 -2.92,-6.9 -4.24,-11 -3.97,-12.29 0.14,-1.23 0.84,-2.16 2.07,-2.78 1.25,-0.61 2.4,-1.12 3.49,-1.54 10.91,-4.4 19.1,-5.13 24.56,-2.18 1.07,0.63 1.92,1.56 2.54,2.78 0.51,1.03 1.38,3.17 2.62,6.42 2.14,5.61 3.14,9.04 2.98,10.28 m -6.15,60.91 c 2.43,-0.31 6.32,-1.8 11.68,-4.46 4.64,-2.3 7.88,-4.31 9.74,-6 1.96,-2 3.51,-5.1 4.65,-9.26 1.08,-4.02 1.6,-6.88 1.53,-8.56 -0.08,-1.71 -0.79,-3.9 -2.11,-6.57 -1.28,-2.58 -2.66,-4.47 -4.09,-5.69 -1.44,-1.21 -4.11,-2.65 -8.02,-4.31 -3.4,-1.39 -5.31,-2.5 -5.71,-3.32 -0.19,-0.42 0.72,-2.04 2.79,-4.86 2.12,-2.47 3.19,-4.85 3.19,-7.17 0,-2.58 -0.23,-4.33 -0.69,-5.26 -0.71,-1.44 -1.11,-2.73 -1.15,-3.86 -0.26,-3.09 -1.12,-6.13 -2.61,-9.11 -0.36,-0.74 -0.85,-1.45 -1.47,-2.18 -1.17,-1.33 -2.18,-2.57 -3.01,-3.7 -1.06,-1.39 -3.24,-2.54 -6.51,-3.42 -3.27,-0.87 -6.15,-1.14 -8.69,-0.78 -1.44,0.2 -3.64,0.4 -6.64,0.61 -1.44,-0.06 -4.97,0.83 -10.63,2.67 -5.63,1.85 -9.84,3.46 -12.62,4.85 -0.22,0.1 -0.48,0.26 -0.81,0.49 -0.35,0.23 -0.55,0.38 -0.66,0.43 -1.5,1.13 -2.3,2.27 -2.44,3.43 -0.14,1.15 0.45,3.02 1.72,5.6 1.03,2.06 1.93,3.74 2.71,5.02 2.04,3.61 3.71,6.7 4.98,9.28 1.45,2.89 3.47,7.14 6.09,12.78 2.61,5.64 4.43,9.5 5.46,11.56 2.91,6.65 5.57,12.53 7.99,17.62 l 4.92,11.05 3.39,1.78 c 2.32,1.31 4.66,1.74 7.02,1.34" /><path
         id="path48"
         style="fill:#ffffff;fill-opacity:1;fill-rule:nonzero;stroke:none"
         d="m 1310.2,1517.36 c -0.09,0.89 -0.31,1.48 -0.7,1.73 -1.03,0.73 -4.89,-0.58 -11.56,-3.93 -1.52,-0.77 -3.2,-1.71 -5.02,-2.82 -1.82,-1.11 -3.38,-1.99 -4.68,-2.63 -1.41,-0.43 -2.41,-1.07 -3,-1.91 -0.39,-0.57 -1.55,-1.32 -3.45,-2.23 -1.63,-0.54 -4.26,-2.09 -7.85,-4.63 -1.11,-0.78 -3.1,-2.12 -5.98,-4.05 -2.88,-1.92 -4.61,-3.11 -5.2,-3.54 -3.87,-2.34 -6.07,-3.9 -6.6,-4.66 -0.85,-1.21 -0.29,-2.53 1.7,-3.91 1.42,-0.98 3.01,-1.6 4.8,-1.87 1.81,-0.41 4.51,-1.88 8.11,-4.38 3.1,-2.16 5.53,-3.51 7.28,-4.01 0.86,-0.18 5.39,-2.84 13.6,-8 7.46,-4.77 11.68,-7.08 12.63,-6.91 0.17,0.04 0.36,0.19 0.54,0.48 1.72,2.45 2.28,6.89 1.72,13.32 -0.31,2.6 -0.06,5.57 0.74,8.94 1.01,4.07 1.24,8.34 0.69,12.79 -0.12,1.62 0.16,5.56 0.86,11.81 z m -9.5,-81.34 c 0.32,0.48 0.66,2.26 0.98,5.33 0.31,3.07 0.61,4.79 0.87,5.17 0.32,0.47 0.37,1.36 0.15,2.64 -0.18,0.96 -2.07,2.69 -5.64,5.19 -0.58,0.39 -4.32,2.87 -11.26,7.41 -10.78,7.08 -17.07,10.83 -18.89,11.26 -1.55,0.37 -4.5,1.78 -8.82,4.24 -6.09,3.54 -10.08,4.77 -11.95,3.68 -0.98,-0.58 -2.66,-1.71 -5.09,-3.39 -4.65,-3.23 -7.99,-4.12 -10.07,-2.66 -0.95,0.65 -1.55,1.56 -1.79,2.7 -0.25,1.16 -0.11,2.12 0.42,2.87 0.19,0.3 0.41,0.49 0.63,0.62 1.88,1.49 5.19,3.61 9.9,6.36 5.82,3.52 8.83,5.42 9.03,5.71 0.32,0.47 1.8,1.48 4.42,3.02 1.43,0.67 4.45,2.58 9.02,5.71 15.31,10.51 26.08,17.13 32.29,19.81 2,0.85 3.79,1.92 5.38,3.19 1.13,1.03 3.07,2.21 5.82,3.53 2.74,1.32 4.41,1.91 5.01,1.76 0.86,-0.17 1.68,-0.53 2.44,-1.05 1.68,-1.18 2.71,-2.74 3.07,-4.66 0.86,-5.8 0.79,-13.66 -0.24,-23.6 -0.45,-3.06 -0.63,-6.65 -0.56,-10.77 0.17,-2.79 -0.05,-4.8 -0.65,-6.07 -0.43,-1.25 -0.79,-3.45 -1.04,-6.63 -0.02,-1.25 -0.75,-7.2 -2.13,-17.88 -1.4,-10.67 -2.02,-16.91 -1.86,-18.7 0.18,-1.95 -0.07,-4.51 -0.72,-7.69 -0.68,-3.18 -1.4,-5.33 -2.2,-6.47 -1.24,-1.79 -2.87,-2.01 -4.85,-0.62 -1.79,1.25 -2.66,3.12 -2.62,5.61 -0.09,1.88 0.23,3.34 0.95,4.38" /><path
         id="path50"
         style="fill:#ffffff;fill-opacity:1;fill-rule:nonzero;stroke:none"
         d="m 1409.64,1349.3 c 0.34,0.3 0.71,1.11 1.09,2.43 0.36,1.32 0.78,2.17 1.21,2.56 0.43,0.37 1.63,2.93 3.6,7.69 1.96,4.76 3.54,7.66 4.77,8.73 1.11,0.99 1.74,2.36 1.87,4.15 0.12,1.79 0.62,3.06 1.5,3.82 1.38,1.2 2.56,3.48 3.52,6.84 0.98,3.36 1.08,5.48 0.33,6.36 -0.76,0.85 -1.57,1 -2.41,0.41 -4.76,-2.62 -12.99,-9.02 -24.72,-19.22 l -4.69,-4.07 -15.13,-13.39 -2.29,0.53 c -1.6,0.43 -2.71,1 -3.3,1.69 -1.22,1.39 -1.09,2.95 0.38,4.68 1.46,1.74 6.5,6.43 15.11,14.07 11.37,9.89 17.99,15.88 19.86,17.95 0.44,0.54 1.18,1.27 2.22,2.18 1.48,1.27 2.67,2.02 3.58,2.19 1.51,0.55 4.87,3.1 10.08,7.62 l 8.06,6.78 2.01,-1 c 0.8,-0.37 1.45,-0.87 1.98,-1.47 0.68,-0.78 0.94,-1.83 0.75,-3.11 -0.16,-1.31 -0.74,-3.29 -1.75,-6.01 -1.49,-3.73 -2.76,-7.51 -3.85,-11.35 -2.66,-10.1 -5.17,-16.77 -7.51,-20.04 -2.09,-2.88 -3.74,-5.61 -4.99,-8.22 -1.62,-3.4 -3.07,-5.65 -4.38,-6.8 -1.22,-1.05 -1.64,-2.42 -1.26,-4.07 0.45,-1.73 0.86,-2.84 1.24,-3.26 0.9,-1.05 2.78,-1.1 5.61,-0.15 2.26,0.75 6.18,2.27 11.77,4.62 5.59,2.35 10.08,3.85 13.47,4.51 3.98,0.87 6.27,1.57 6.88,2.1 0.78,0.67 6.63,2.56 17.53,5.63 3.15,0.93 5.66,1.81 7.52,2.66 0.84,0.42 2.03,0.47 3.57,0.12 1.52,-0.35 2.66,-0.96 3.41,-1.83 0.6,-0.7 0.84,-1.48 0.69,-2.38 -0.41,-2.33 -8.73,-10.57 -24.97,-24.69 -16.15,-14.06 -26.29,-24.16 -30.38,-30.32 -0.37,-0.63 -0.99,-1.31 -1.86,-2.08 -1.22,-1.05 -2.55,-1.63 -3.98,-1.73 -1.43,-0.12 -2.53,0.27 -3.28,1.14 -0.46,0.52 -0.77,1.32 -0.94,2.4 -0.09,0.97 0,1.74 0.29,2.3 0.28,0.55 1.2,1.5 2.77,2.87 l 2.61,2.26 2.33,2.04 c 2.53,2.19 3.94,3.65 4.22,4.36 0.32,1.03 3.57,4.24 9.73,9.59 5.39,4.69 8.88,7.96 10.48,9.81 0.08,0.08 0.32,0.32 0.72,0.74 0.4,0.42 0.72,0.75 0.98,0.96 1.66,1.44 3.46,2.79 5.43,4.04 2.23,1.65 3.52,2.6 3.87,2.91 2,1.74 2.43,3.26 1.29,4.56 -0.52,0.61 -1.78,0.79 -3.75,0.51 -1.99,-0.26 -3.45,-0.83 -4.4,-1.65 -1.3,-1.14 -6.54,-3.02 -15.69,-5.64 -2.75,-0.7 -5.53,-1.72 -8.35,-3.03 -2.82,-1.31 -5.53,-2.41 -8.13,-3.29 -5.17,-1.77 -8.78,-3.06 -10.8,-3.9 -5.63,-2.29 -9.1,-2.67 -10.48,-1.11 -1.5,1.74 -1.09,3.63 1.27,5.66 1.2,1.07 2.04,2.48 2.49,4.24 0.28,1.61 0.67,2.64 1.2,3.1" /><path
         id="path52"
         style="fill:#ffffff;fill-opacity:1;fill-rule:nonzero;stroke:none"
         d="m 1537.72,1271.54 c -0.45,3.94 -0.88,6.56 -1.3,7.88 -0.41,1.29 -1.35,3.12 -2.83,5.44 -1.48,2.34 -3,4.44 -4.59,6.3 -1.18,1.43 -3.22,2.84 -6.12,4.2 -2.91,1.36 -5.56,2.23 -7.98,2.62 -2.58,0.41 -5.71,0.48 -9.41,0.18 -3.7,-0.28 -6.7,-0.88 -8.98,-1.78 -0.35,-0.09 -1.32,-0.5 -2.91,-1.22 -1.57,-0.73 -2.78,-1.22 -3.57,-1.45 -0.85,-0.4 -2.24,-0.88 -4.2,-1.42 -1.97,-0.56 -3.58,-1.25 -4.84,-2.04 l -1.62,-1.02 c -1.69,-1.2 -3.86,-3.36 -6.52,-6.46 -2.68,-3.13 -4.29,-5.41 -4.87,-6.86 -0.84,-1.89 -1.69,-4.7 -2.54,-8.43 -0.84,-3.74 -1.18,-6.58 -1.06,-8.54 0,-1.92 0.23,-3.46 0.72,-4.65 0.48,-1.2 1.91,-3.7 4.31,-7.49 2.39,-3.8 4.06,-6.19 4.95,-7.19 0.91,-1 2.64,-2.24 5.23,-3.74 4.24,-2.64 8.85,-4.28 13.84,-4.95 4.97,-0.67 8.87,-0.12 11.69,1.68 1.56,0.97 2.95,1.58 4.18,1.81 2.04,0.2 6.76,2.64 14.17,7.31 2.05,1.29 3,2.03 2.87,2.23 -0.18,0.29 0.94,1.95 3.39,4.99 4.34,5.19 6.91,8.94 7.72,11.21 0.81,2.28 0.9,6.07 0.27,11.39 m -3.77,23.76 c 2.06,-1.98 4.28,-4.85 6.68,-8.65 2.58,-4.08 3.93,-6.97 4.04,-8.67 0.31,-3.48 1.46,-7.71 3.52,-12.69 0.39,-0.84 0.28,-2.6 -0.31,-5.31 -0.62,-2.69 -1.42,-4.97 -2.43,-6.83 -0.61,-1.2 -2.47,-3.36 -5.6,-6.5 -3.13,-3.12 -4.99,-5.08 -5.58,-5.87 -1.62,-1.96 -4.72,-4.39 -9.28,-7.28 -3.51,-2.23 -7.12,-4.16 -10.83,-5.83 -8.09,-3.6 -16.81,-4.21 -26.2,-1.83 -8.2,2.18 -14.9,6.12 -20.12,11.8 -1.68,1.8 -3.85,4.79 -6.48,8.97 -2.27,3.62 -3.5,5.98 -3.66,7.09 -0.52,2.12 0.23,7.83 2.25,17.14 0.99,5.12 2.77,9.52 5.36,13.19 2.51,3.77 4.16,5.9 4.94,6.38 0.59,0.38 2.14,0.73 4.64,1.09 l 3.45,0.34 1.13,3.37 c 0.61,2.3 1.49,3.59 2.64,3.92 l 6.58,2.52 c 8.76,3.36 17.12,4.48 25.04,3.35 7.92,-1.12 14.67,-4.36 20.22,-9.7" /><path
         id="path54"
         style="fill:#ffffff;fill-opacity:1;fill-rule:nonzero;stroke:none"
         d="m 1590.03,1181.91 c 0.71,-1.32 1.48,-2.78 2.3,-4.36 0.83,-1.59 1.47,-2.81 1.93,-3.68 0.45,-0.87 0.78,-1.57 1.02,-2.1 0.75,-1.67 1.1,-3.16 1.03,-4.45 0.08,-1.86 -0.36,-3 -1.3,-3.41 -0.53,-0.24 -1.13,-0.19 -1.78,0.15 -0.76,0.3 -3.06,4.06 -6.9,11.29 -3.04,5.71 -5.24,9.32 -6.61,10.86 -1.39,1.54 -3.75,2.95 -7.08,4.22 -2.12,0.82 -5.53,1.4 -10.2,1.72 -4.67,0.31 -8.22,0.18 -10.61,-0.38 -7.65,-1.75 -13.85,-3.68 -18.58,-5.79 -2.11,-0.94 -3.4,-1.7 -3.9,-2.29 -0.71,-0.96 -1.82,-2.01 -3.31,-3.17 -2.9,-2.56 -4.35,-6.52 -4.33,-11.93 -0.08,-2.69 -0.31,-4.43 -0.71,-5.23 -0.8,-1.62 -1.09,-3.86 -0.9,-6.72 0.21,-2.88 0.82,-5.43 1.79,-7.62 0.47,-1.06 1.03,-1.93 1.73,-2.64 1.33,-1.3 2.84,-3.15 4.54,-5.54 1.35,-1.91 2.47,-3.21 3.35,-3.9 0.86,-0.67 2.43,-1.47 4.71,-2.34 4.97,-1.82 7.84,-3.63 8.65,-5.43 0.36,-0.84 0.35,-1.79 -0.06,-2.86 -0.31,-1.01 -0.78,-1.66 -1.4,-1.95 -0.85,-0.36 -2.46,-0.13 -4.84,0.7 -4.88,1.62 -9.61,5.17 -14.2,10.7 -2.94,3.23 -4.49,4.86 -4.65,4.93 -0.68,0.44 -2.1,3.04 -4.19,7.76 l -3.23,7.27 1.2,5.82 c 1.41,6.17 1.89,9.77 1.42,10.83 -0.32,0.73 -0.25,2.34 0.23,4.81 0.47,2.49 1.04,4.25 1.69,5.3 0.35,0.66 1.32,1.65 2.93,3 1.62,1.35 3.53,2.86 5.74,4.52 2.2,1.69 3.37,2.55 3.49,2.59 0.73,0.59 1.58,1.08 2.52,1.51 3.59,1.59 6.3,2.29 8.14,2.1 0.93,-0.1 2.85,0.26 5.77,1.05 7.73,2.17 12.53,2.98 14.41,2.43 1.58,-0.43 3.95,-0.78 7.06,-1.02 5.3,-0.28 10.41,-2.43 15.33,-6.43 2.67,-2.33 5.27,-5.78 7.8,-10.32" /><path
         id="path56"
         style="fill:#ffffff;fill-opacity:1;fill-rule:nonzero;stroke:none"
         d="m 1628.77,1062.39 c -0.33,-0.1 -2.62,0.69 -6.84,2.37 -4.23,1.68 -6.45,2.48 -6.68,2.42 -0.65,-0.2 -4.9,2.07 -12.76,6.82 -7.85,4.73 -12.47,7.85 -13.88,9.35 -1.56,1.58 -2.95,2.19 -4.15,1.81 -1.67,-0.49 -2.82,-2.4 -3.51,-5.73 -0.91,-3.39 -3.45,-8.36 -7.62,-14.89 -4.64,-7.77 -7.99,-13.63 -10.05,-17.61 -2.17,-4.37 -3.49,-6.63 -3.92,-6.76 -1,-0.31 -2.07,0.1 -3.24,1.19 -1.16,1.1 -2.02,2.53 -2.55,4.28 -0.32,1.11 -0.35,2.16 -0.04,3.15 0.31,0.98 1.32,2.83 3.04,5.5 3.53,5.87 7.16,12.23 10.86,19.11 3.72,6.88 5.48,10.6 5.31,11.16 -0.25,0.88 -0.86,1.48 -1.79,1.8 -0.94,0.31 -3.07,-0.02 -6.37,-1.01 -1.77,-0.53 -4.45,-1.7 -8.05,-3.5 -3.62,-1.8 -6.19,-2.94 -7.74,-3.39 -1.21,-0.37 -2.61,-0.08 -4.2,0.81 -1.59,0.91 -2.58,2.02 -2.99,3.35 -0.43,1.43 -0.41,2.57 0.06,3.43 0.6,0.79 6.59,2.88 17.95,6.27 4.85,1.45 8.38,2.47 10.63,3.02 5.18,1.54 12.63,3.96 22.35,7.23 9.05,3.06 15.23,5.09 18.54,6.09 4.18,1.26 6.94,1.66 8.29,1.22 1.33,-0.44 2.24,-1.49 2.74,-3.15 0.4,-1.32 0.4,-2.64 0.02,-3.96 -0.39,-1.31 -1.08,-2.13 -2.08,-2.41 -0.11,-0.04 -0.25,-0.05 -0.43,-0.05 -0.2,0.01 -0.34,-0.01 -0.44,-0.03 -1.06,-0.08 -4.36,-0.75 -9.86,-1.98 -5.54,-1.23 -9.78,-2.29 -12.76,-3.18 -1.43,-0.44 -2.29,-0.75 -2.59,-0.96 -2.59,-1.38 -3.69,-2.72 -3.29,-4.05 0.49,-1.65 3.35,-3.74 8.55,-6.27 14.93,-7.79 22.91,-11.53 23.91,-11.22 0.77,0.22 2.14,-0.26 4.12,-1.47 1.99,-1.21 3.12,-2.26 3.38,-3.14 0.26,-0.88 0.14,-2.01 -0.35,-3.35 -0.5,-1.35 -1.02,-2.09 -1.57,-2.27" /><path
         id="path58"
         style="fill:#ffffff;fill-opacity:1;fill-rule:nonzero;stroke:none"
         d="m 1646.53,990.086 c 1,2.269 1.18,5.879 0.54,10.774 -0.13,1.4 -0.35,2.98 -0.68,4.79 -0.45,2.5 -1.43,4.43 -2.96,5.8 -0.83,0.78 -3.76,0.74 -8.73,-0.15 -5.11,-0.91 -8.74,-1.85 -10.9,-2.82 -1.3,-0.57 -2.46,-0.96 -3.48,-1.14 -0.91,-0.16 -2.02,-0.18 -3.33,-0.06 -2.27,0.29 -3.77,-0.15 -4.49,-1.33 -0.57,-0.8 -0.78,-1.53 -0.65,-2.22 0.11,-0.68 0.52,-2 1.22,-3.98 1.95,-5.047 3.45,-8.406 4.52,-10.078 1.04,-1.688 2.75,-3.188 5.09,-4.531 5.08,-2.946 8.7,-4.243 10.86,-3.864 1.02,0.184 1.8,0.391 2.35,0.598 5.43,1.672 8.96,4.402 10.64,8.211 m -41.24,-16.625 c 1.32,1.168 2.24,3.176 2.78,6.016 0.55,2.843 0.61,5.461 0.2,7.843 -0.7,3.27 -1.63,6.719 -2.81,10.364 -1.18,3.646 -2.04,5.726 -2.6,6.206 -0.44,0.51 -1.68,0.58 -3.72,0.22 -0.9,-0.16 -5.85,-1.33 -14.81,-3.51 -7.28,-1.756 -11.36,-3.12 -12.24,-4.096 -0.89,-0.871 -1.23,-1.973 -0.98,-3.336 0.23,-1.363 0.51,-2.602 0.82,-3.715 2.96,-11.398 7.25,-18.414 12.86,-21.039 1.14,-0.504 2.39,-0.617 3.75,-0.391 1.13,0.207 3.37,0.782 6.7,1.731 5.8,1.605 9.15,2.844 10.05,3.707 m 45.3,41.189 c 1.19,-2.13 2.31,-6.14 3.36,-12.03 0.91,-5.108 1.22,-8.901 0.96,-11.401 -0.44,-2.774 -1.98,-5.848 -4.67,-9.254 -2.56,-3.254 -4.56,-5.363 -5.97,-6.317 -1.41,-0.953 -3.59,-1.683 -6.54,-2.214 -2.83,-0.504 -5.17,-0.536 -6.99,-0.102 -1.83,0.438 -4.57,1.719 -8.23,3.887 -3.14,1.89 -5.17,2.761 -6.08,2.601 -0.45,-0.078 -1.19,-1.797 -2.23,-5.136 -0.74,-3.164 -2.02,-5.434 -3.88,-6.821 -2.07,-1.535 -3.61,-2.386 -4.64,-2.582 -1.57,-0.285 -2.85,-0.742 -3.79,-1.363 -2.62,-1.637 -5.58,-2.75 -8.87,-3.336 -0.79,-0.137 -1.66,-0.184 -2.62,-0.113 -1.77,0.16 -3.35,0.226 -4.76,0.207 -1.76,0.035 -3.96,1.097 -6.62,3.211 -2.65,2.097 -4.59,4.261 -5.8,6.5 -0.7,1.293 -1.86,3.187 -3.46,5.699 -0.91,1.133 -2.3,4.504 -4.18,10.133 -1.88,5.629 -3.08,9.976 -3.63,13.039 -0.04,0.215 -0.07,0.547 -0.08,0.952 -0.01,0.41 -0.04,0.67 -0.05,0.78 0.01,1.87 0.45,3.2 1.31,4 0.85,0.79 2.69,1.44 5.52,1.95 2.26,0.4 4.14,0.67 5.65,0.83 4.12,0.49 7.59,0.99 10.42,1.5 3.19,0.56 7.81,1.47 13.89,2.72 6.1,1.27 10.28,2.09 12.55,2.49 7.07,1.62 13.38,2.97 18.92,4.06 l 11.81,2.63 3.45,-1.68 c 2.4,-1.08 4.17,-2.69 5.25,-4.84" /><path
         id="path60"
         style="fill:#ffffff;fill-opacity:1;fill-rule:nonzero;stroke:none"
         d="m 1608.75,900.141 c 1.45,0.882 2.6,2.488 3.44,4.781 0.85,2.293 1.19,4.711 1.06,7.234 -0.13,2.188 -0.65,4 -1.53,5.446 -1.15,1.789 -3.04,2.589 -5.67,2.429 -0.7,-0.031 -1.33,-0.238 -1.87,-0.617 -0.57,-0.379 -4.11,-0.988 -10.62,-1.836 -6.54,-0.723 -10.23,-1.625 -11.09,-2.715 -0.65,-0.722 -0.94,-1.722 -0.86,-2.992 0.07,-1.137 0.17,-2.113 0.33,-2.914 0.5,-2.387 1.43,-4.965 2.79,-7.703 1.37,-2.754 2.59,-4.371 3.66,-4.899 3.32,-1.535 6.71,-2.199 10.15,-2.003 3.1,0.179 5.35,1.066 6.76,2.648 1.31,1.465 2.45,2.496 3.45,3.141 m 51.2,-14.836 c 1.33,-1.196 2.05,-2.422 2.1,-3.68 0.07,-1.16 -0.21,-2.121 -0.87,-2.914 -0.63,-0.781 -1.26,-0.965 -1.87,-0.539 -1.05,0.273 -7.21,0.101 -18.47,-0.563 -24.02,-1.386 -38.04,-3.062 -42.08,-5.035 -0.89,-0.504 -2.7,-0.961 -5.45,-1.351 -0.23,-0.012 -0.62,-0.055 -1.21,-0.16 -0.57,-0.09 -1.02,-0.149 -1.36,-0.172 -5.17,-0.286 -7.87,1.398 -8.07,5.078 -0.09,1.48 0.18,2.535 0.85,3.156 0.64,0.617 2.01,0.984 4.08,1.109 1.6,0.082 2.99,0.106 4.15,0.071 1.14,-0.047 2.59,-0.024 4.32,0.07 2.18,0.125 3.72,0.504 4.6,1.133 1.77,1.144 11.18,2.203 28.18,3.187 3.67,0.219 9.2,0.422 16.56,0.618 2.3,0.14 4.82,0.46 7.55,0.964 0.92,0.172 1.94,0.278 3.1,0.344 1.26,0.082 2.57,-0.367 3.89,-1.316 m -5.65,40.484 c 1.56,-1.055 2.39,-2.398 2.48,-4.004 0.11,-1.961 -0.69,-2.98 -2.41,-3.082 -0.69,-0.047 -1.4,0.09 -2.1,0.391 -1.19,0.515 -3.91,0.64 -8.15,0.386 -4.37,-0.25 -7.38,-0.066 -9.02,0.52 -1.66,0.711 -4.38,0.949 -8.18,0.742 -5.05,-0.297 -7.52,-1.363 -7.43,-3.199 0.03,-0.355 0.18,-0.973 0.47,-1.879 0.41,-1.008 0.69,-3.016 0.86,-6.008 l 0.11,-1.718 c 0.01,-2.422 -0.11,-4.188 -0.39,-5.297 -0.28,-1.114 -1.06,-2.684 -2.32,-4.715 -1.67,-2.981 -3.4,-5.102 -5.17,-6.363 -1.78,-1.145 -3.38,-2.383 -4.79,-3.735 -1.32,-1.113 -3.13,-1.746 -5.44,-1.871 l -2.75,-0.16 c -4.26,-0.137 -7.7,0.48 -10.31,1.82 -5.94,2.879 -10.26,8.863 -12.98,17.934 -0.84,2.707 -1.3,4.703 -1.37,5.961 -0.02,0.343 0.1,2.031 0.39,5.047 0.37,3.589 0.98,5.871 1.84,6.843 0.77,0.86 9.83,1.789 27.17,2.786 30.11,1.769 46.62,1.617 49.49,-0.399" /><path
         id="path62"
         style="fill:#ffffff;fill-opacity:1;fill-rule:nonzero;stroke:none"
         d="m 1638.98,723.555 c 0.44,-0.989 0.6,-1.938 0.46,-2.856 -0.17,-1.25 -0.64,-2.062 -1.39,-2.422 -0.51,-0.386 -5.8,0.141 -15.82,1.575 l -11.11,1.582 c -19.48,2.796 -30.61,4.265 -33.38,4.425 -3.46,0.274 -5.29,0.411 -5.51,0.434 -1.61,0.242 -2.61,0.84 -3.06,1.836 -0.46,0.894 -0.63,1.73 -0.51,2.523 0.2,1.364 0.89,2.543 2.08,3.543 0.66,0.594 3.05,0.594 7.15,0.024 4.78,-0.692 9.23,-1.379 13.3,-2.09 10.25,-1.582 17.95,-2.969 23.13,-4.172 0.55,-0.195 1.35,-0.367 2.37,-0.516 2.04,-0.3 3.14,0.024 3.27,0.93 0.09,0.57 -0.16,1.305 -0.73,2.188 -0.78,1.054 -1.85,2.132 -3.2,3.269 -1.34,1.11 -2.97,2.371 -4.87,3.735 -1.9,1.378 -3.26,2.421 -4.09,3.109 -5.41,4.508 -15.27,13.183 -29.59,26.051 -3.7,3.312 -5.46,5.777 -5.22,7.359 0.05,0.344 0.14,0.633 0.29,0.824 0.49,0.989 1.7,1.344 3.64,1.059 2.16,-0.301 3.74,-0.242 4.74,0.203 1.58,0.586 8.28,0.195 20.07,-1.133 1.26,-0.172 7.37,-0.883 18.36,-2.097 l 2.91,-0.415 c 13.22,-1.902 20.59,-3.589 22.12,-5.089 0.51,-0.539 0.68,-1.321 0.54,-2.34 -0.15,-1.031 -0.51,-1.903 -1.07,-2.637 -0.57,-0.621 -2.33,-0.84 -5.34,-0.644 -2.99,0.195 -11.06,1.125 -24.19,2.765 -14.62,1.856 -22.38,2.567 -23.25,2.11 -0.75,-0.368 -1.17,-0.872 -1.26,-1.559 -0.19,-1.25 0.53,-2.41 2.11,-3.453 0.32,-0.262 1.81,-1.637 4.47,-4.117 2.68,-2.473 4.6,-4.036 5.79,-4.664 2.15,-1.125 4.56,-2.981 7.23,-5.575 1.95,-1.789 4.66,-3.976 8.13,-6.566 3.47,-2.594 6.52,-5.172 9.18,-7.777 1.51,-1.602 3.65,-3.243 6.44,-4.93 3.32,-1.981 5.26,-3.484 5.81,-4.492" /><path
         id="path64"
         style="fill:#ffffff;fill-opacity:1;fill-rule:nonzero;stroke:none"
         d="m 1570.41,657.73 c 0.44,-0.14 1.32,0 2.63,0.391 1.33,0.391 2.26,0.5 2.82,0.328 0.54,-0.148 3.36,0.211 8.43,1.11 5.05,0.902 8.37,1.132 9.91,0.671 1.44,-0.429 2.94,-0.21 4.52,0.641 1.56,0.859 2.91,1.117 4,0.801 1.78,-0.531 4.34,-0.301 7.68,0.687 3.36,0.993 5.2,2.039 5.53,3.141 0.32,1.102 0.01,1.859 -0.95,2.262 -4.75,2.609 -14.59,6.109 -29.48,10.527 l -5.96,1.762 -19.41,5.57 -0.79,2.219 c -0.5,1.59 -0.61,2.82 -0.35,3.699 0.53,1.77 1.92,2.5 4.16,2.191 2.25,-0.308 8.92,-2.039 19.98,-5.191 14.46,-4.289 23.07,-6.668 25.81,-7.109 0.7,-0.071 1.7,-0.321 3.04,-0.711 1.86,-0.571 3.13,-1.168 3.77,-1.84 1.26,-0.969 5.21,-2.449 11.84,-4.41 l 10.04,-3.137 0.25,-2.25 c 0.11,-0.863 0.04,-1.691 -0.19,-2.473 -0.3,-0.988 -1.04,-1.75 -2.21,-2.308 -1.19,-0.551 -3.2,-1.121 -6.02,-1.731 -3.93,-0.761 -7.82,-1.711 -11.64,-2.851 -9.94,-3.188 -16.93,-4.649 -20.93,-4.43 -3.55,0.211 -6.75,0.141 -9.61,-0.207 -3.74,-0.461 -6.43,-0.453 -8.09,0.039 -1.55,0.461 -2.92,0.078 -4.12,-1.109 -1.23,-1.321 -1.93,-2.262 -2.08,-2.813 -0.4,-1.328 0.56,-2.918 2.89,-4.808 1.84,-1.5 5.24,-3.993 10.22,-7.442 4.98,-3.449 8.65,-6.437 11.04,-8.949 2.87,-2.891 4.68,-4.449 5.46,-4.668 0.99,-0.301 5.72,-4.211 14.17,-11.773 2.47,-2.168 4.56,-3.797 6.28,-4.911 0.81,-0.476 1.49,-1.457 2.02,-2.937 0.51,-1.473 0.61,-2.75 0.29,-3.871 -0.26,-0.879 -0.81,-1.5 -1.64,-1.852 -2.18,-0.906 -13.6,1.684 -34.24,7.793 -20.54,6.078 -34.5,9.188 -41.9,9.348 -0.72,-0.027 -1.64,0.121 -2.74,0.441 -1.54,0.461 -2.75,1.27 -3.61,2.418 -0.86,1.16 -1.12,2.293 -0.79,3.403 0.18,0.648 0.69,1.347 1.51,2.07 0.78,0.598 1.47,0.937 2.09,0.988 0.62,0.071 1.93,-0.199 3.91,-0.789 l 3.31,-0.988 2.99,-0.871 c 3.19,-0.949 5.18,-1.352 5.93,-1.211 1.05,0.281 5.5,-0.738 13.34,-3.051 6.83,-2.027 11.47,-3.219 13.87,-3.578 0.12,-0.039 0.46,-0.09 1.02,-0.211 0.58,-0.102 1.02,-0.219 1.34,-0.309 2.11,-0.621 4.21,-1.429 6.32,-2.41 2.59,-0.992 4.11,-1.57 4.54,-1.699 2.54,-0.75 4.05,-0.301 4.54,1.348 0.23,0.781 -0.29,1.929 -1.58,3.449 -1.29,1.519 -2.54,2.473 -3.77,2.82 -1.65,0.492 -6.04,3.903 -13.18,10.211 -2.07,1.93 -4.42,3.731 -7.04,5.41 -2.62,1.68 -5.01,3.371 -7.13,5.09 -4.27,3.43 -7.3,5.762 -9.09,7 -4.97,3.52 -7.15,6.262 -6.56,8.262 0.64,2.199 2.46,2.859 5.44,1.976 1.56,-0.449 3.18,-0.398 4.92,0.161 1.51,0.64 2.59,0.863 3.25,0.671" /><path
         id="path66"
         style="fill:#ffffff;fill-opacity:1;fill-rule:nonzero;stroke:none"
         d="m 1530.91,586.359 c 0.95,-1.007 1.67,-2.23 2.14,-3.66 0.49,-1.429 0.51,-2.687 0.08,-3.75 -0.55,-1.398 -1.89,-2.219 -3.97,-2.5 -1.54,-0.117 -2.53,-0.097 -2.95,0.082 -0.65,0.25 -1.47,0.84 -2.47,1.731 -1.67,1.41 -2.58,3.027 -2.71,4.82 0,1.238 0.09,2.066 0.25,2.5 0.48,1.168 2.15,1.938 5.02,2.27 1.9,0.097 3.43,-0.391 4.61,-1.493" /><path
         id="path68"
         style="fill:#ffffff;fill-opacity:1;fill-rule:nonzero;stroke:none"
         d="m 1523.3,412.609 c -0.29,0.192 -1.22,2.422 -2.78,6.68 -1.55,4.281 -2.43,6.473 -2.62,6.59 -0.59,0.359 -1.72,5.062 -3.4,14.07 -1.67,9.012 -2.42,14.539 -2.23,16.59 0.15,2.211 -0.31,3.652 -1.4,4.32 -1.47,0.903 -3.67,0.512 -6.62,-1.199 -3.14,-1.57 -8.53,-2.969 -16.19,-4.211 -8.88,-1.668 -15.5,-3.07 -19.83,-4.179 -4.73,-1.29 -7.27,-1.809 -7.66,-1.571 -0.88,0.551 -1.31,1.61 -1.26,3.223 0.03,1.59 0.54,3.168 1.51,4.75 0.61,0.976 1.38,1.68 2.32,2.109 0.94,0.43 2.99,0.891 6.13,1.379 6.73,1.281 13.9,2.801 21.5,4.602 7.6,1.797 11.56,2.949 11.85,3.437 0.49,0.781 0.53,1.633 0.15,2.531 -0.37,0.918 -2.04,2.29 -4.98,4.102 -1.56,0.969 -4.22,2.199 -7.96,3.699 -3.74,1.5 -6.31,2.66 -7.67,3.52 -1.08,0.648 -1.81,1.89 -2.19,3.679 -0.39,1.79 -0.22,3.27 0.51,4.45 0.78,1.269 1.66,2.019 2.61,2.25 0.98,0.07 6.52,-3.02 16.61,-9.239 4.31,-2.66 7.42,-4.652 9.32,-5.941 4.6,-2.852 11.35,-6.809 20.25,-11.898 8.31,-4.731 13.93,-8 16.88,-9.813 3.71,-2.289 5.86,-4.09 6.42,-5.391 0.56,-1.277 0.38,-2.66 -0.53,-4.136 -0.73,-1.18 -1.72,-2.051 -2.95,-2.633 -1.23,-0.59 -2.3,-0.609 -3.18,-0.059 -0.11,0.059 -0.21,0.149 -0.34,0.289 -0.1,0.153 -0.21,0.25 -0.3,0.289 -0.76,0.75 -3.44,2.782 -8.03,6.082 -4.6,3.301 -8.21,5.782 -10.85,7.411 -1.28,0.789 -2.08,1.218 -2.44,1.289 -2.76,1.019 -4.49,0.941 -5.22,-0.231 -0.91,-1.461 -0.57,-4.98 0.99,-10.539 4.13,-16.351 6.63,-24.789 7.51,-25.328 0.68,-0.434 1.23,-1.781 1.65,-4.062 0.41,-2.29 0.39,-3.821 -0.1,-4.61 -0.48,-0.781 -1.4,-1.441 -2.74,-1.969 -1.33,-0.519 -2.25,-0.621 -2.74,-0.332" /><path
         id="path70"
         style="fill:#ffffff;fill-opacity:1;fill-rule:nonzero;stroke:none"
         d="m 1463.08,335.07 c 3.59,1.672 5.95,2.899 7.05,3.7 1.11,0.812 2.53,2.269 4.29,4.402 1.76,2.148 3.27,4.25 4.54,6.34 0.99,1.558 1.67,3.949 2.05,7.136 0.39,3.184 0.38,5.981 -0.02,8.391 -0.41,2.582 -1.34,5.582 -2.79,8.992 -1.43,3.41 -2.94,6.071 -4.51,7.969 -0.2,0.309 -0.89,1.09 -2.08,2.371 -1.18,1.27 -2.02,2.258 -2.5,2.949 -0.63,0.66 -1.52,1.852 -2.67,3.532 -1.15,1.687 -2.29,3.007 -3.45,3.949 l -1.47,1.211 c -1.67,1.226 -4.41,2.617 -8.21,4.168 -3.78,1.55 -6.45,2.371 -8.02,2.468 -2.06,0.204 -5,0.114 -8.81,-0.257 -3.8,-0.36 -6.6,-0.942 -8.43,-1.68 -1.81,-0.59 -3.22,-1.301 -4.19,-2.141 -0.99,-0.82 -2.9,-2.98 -5.76,-6.441 -2.84,-3.469 -4.6,-5.789 -5.26,-6.957 -0.66,-1.172 -1.3,-3.211 -1.92,-6.133 -1.16,-4.859 -1.27,-9.758 -0.34,-14.699 0.94,-4.93 2.69,-8.469 5.27,-10.578 1.42,-1.172 2.43,-2.301 3.04,-3.391 0.84,-1.883 4.63,-5.59 11.4,-11.152 1.86,-1.528 2.88,-2.219 3,-2.028 0.23,0.258 2.17,-0.293 5.82,-1.64 6.29,-2.5 10.65,-3.762 13.07,-3.821 2.41,-0.05 6.04,1.071 10.9,3.34 m 21.36,11.051 c -1.22,-2.582 -3.26,-5.582 -6.11,-9.062 -3.07,-3.739 -5.39,-5.93 -6.95,-6.567 -3.23,-1.383 -6.87,-3.82 -10.94,-7.32 -0.67,-0.652 -2.38,-1.102 -5.15,-1.371 -2.75,-0.27 -5.17,-0.231 -7.25,0.14 -1.33,0.207 -3.96,1.289 -7.93,3.278 -3.95,1.98 -6.41,3.133 -7.33,3.453 -2.38,0.91 -5.66,3.078 -9.83,6.519 -3.2,2.629 -6.18,5.45 -8.92,8.438 -5.96,6.543 -9.3,14.633 -9.99,24.301 -0.5,8.461 1.12,16.058 4.88,22.8 1.18,2.168 3.33,5.161 6.49,8.981 2.69,3.289 4.55,5.187 5.57,5.699 1.84,1.16 7.5,2.25 16.98,3.27 5.16,0.66 9.89,0.34 14.19,-0.942 4.37,-1.218 6.91,-2.109 7.63,-2.687 0.54,-0.461 1.35,-1.801 2.49,-4.063 l 1.41,-3.168 3.55,-0.011 c 2.36,0.132 3.86,-0.289 4.54,-1.289 l 4.46,-5.438 c 5.95,-7.273 9.63,-14.844 11.05,-22.73 1.44,-7.86 0.48,-15.282 -2.84,-22.231" /><path
         id="path72"
         style="fill:#ffffff;fill-opacity:1;fill-rule:nonzero;stroke:none"
         d="m 1388.83,250.988 c 3.88,1.223 7.09,2.992 9.65,5.332 0.42,0.379 0.63,0.66 0.63,0.821 0.02,0.328 2.04,2.89 6.08,7.679 2.77,3.469 4.49,5.711 5.19,6.739 0.69,1.031 0.99,2.121 0.87,3.261 0.01,1.879 -1.01,3.918 -3.04,6.121 -2.09,2.297 -3.46,3.45 -4.12,3.481 -1.04,0.289 -3.48,2.348 -7.31,6.18 -10.3,10.23 -16.03,15.207 -17.19,14.929 -0.89,-0.199 -3.2,-1.652 -6.9,-4.34 -3.7,-2.691 -6.57,-4.972 -8.61,-6.839 -0.26,-0.231 -0.53,-0.52 -0.83,-0.883 -0.31,-0.34 -0.49,-0.559 -0.58,-0.637 -1.63,-1.801 -3.04,-4.113 -4.21,-6.902 -1.09,-2.399 -1.51,-4.309 -1.29,-5.75 0.22,-1.442 1.44,-4.641 3.68,-9.641 2.29,-5.23 4.69,-9.207 7.17,-11.91 1.47,-1.617 3.13,-2.918 4.96,-3.891 2.07,-1.066 3.54,-2.078 4.39,-2.996 0.86,-0.941 2.42,-1.48 4.7,-1.683 2.27,-0.18 4.53,0.14 6.76,0.929 m 15.65,3.114 c -0.34,-0.481 -1.15,-1.301 -2.43,-2.461 -4.66,-4.27 -8.29,-7.059 -10.87,-8.332 -1.66,-0.899 -4.14,-1.368 -7.39,-1.387 -3.27,-0.012 -6.1,0.359 -8.51,1.109 -1.85,0.649 -3.28,1.367 -4.31,2.141 -1.01,0.789 -3.16,2.949 -6.43,6.519 -4.74,5.168 -8.09,9.84 -10.02,14 -2.01,4.571 -3.29,8.61 -3.87,12.141 l -0.98,5.406 4.62,8.012 c 2.81,4.75 5.08,7.922 6.76,9.469 1.37,1.25 2.55,2.261 3.57,3.019 3.28,2.551 5.51,4.364 6.71,5.453 1.27,1.168 2,2.321 2.22,3.45 0.06,1.148 -0.48,1.89 -1.62,2.269 -1.03,0.301 -2.34,1.289 -3.88,2.981 -0.8,0.847 -2.51,2.269 -5.21,4.257 -2.67,1.993 -4.48,3.5 -5.41,4.524 -1.01,1.09 -1.5,2.058 -1.47,2.867 0.06,1.141 0.93,2.481 2.62,4.043 1.19,1.098 2.11,1.539 2.75,1.34 0.56,-0.09 2.9,-2.133 7,-6.102 4.11,-3.98 6.37,-6.082 6.76,-6.351 1.51,-0.789 7.66,-6.559 18.42,-17.289 0.63,-0.52 3.81,-3.239 9.54,-8.121 5.74,-4.899 9.49,-8.321 11.29,-10.27 l 4.1,-4.207 -0.28,-3.543 c -0.61,-4.609 -1.64,-8.207 -3.11,-10.809 -1.45,-2.57 -4.97,-7.289 -10.57,-14.128" /><path
         id="path74"
         style="fill:#ffffff;fill-opacity:1;fill-rule:nonzero;stroke:none"
         d="m 1305.94,179.531 c -0.42,-1 -1.01,-1.761 -1.76,-2.293 -1.04,-0.726 -1.94,-0.949 -2.72,-0.648 -0.96,0.172 -5.66,6.14 -14.11,17.93 -8.55,11.718 -12.94,17.64 -13.18,17.761 -0.54,0.18 -3.09,2.821 -7.66,7.899 -4.58,5.082 -8.25,9.39 -11.03,12.929 -2.55,3.422 -4.85,6.161 -6.88,8.262 -1.14,1 -1.6,2.16 -1.38,3.449 0.1,1.051 0.95,2.149 2.55,3.262 1.32,0.938 2.33,1.309 3.03,1.09 0.55,-0.16 3.51,-3.5 8.86,-10.024 5.36,-6.488 9.16,-11.339 11.43,-14.539 1,-1.41 1.9,-2.187 2.7,-2.32 0.79,-0.141 2.14,0.461 4.02,1.793 1.6,1.109 3.99,3.008 7.18,5.68 11.19,9.297 16.83,14.277 16.95,14.918 -0.11,0.34 -0.29,0.711 -0.57,1.082 -0.91,1.328 -2.15,2.777 -3.69,4.347 -2.73,2.883 -6.43,7.45 -11.14,13.723 -1.22,1.52 -2.56,3.328 -4.02,5.387 -1.74,2.453 -2.48,4.312 -2.25,5.601 0.24,1.45 0.84,2.489 1.78,3.16 0.94,0.661 2.06,0.782 3.34,0.34 1.3,-0.422 2.47,-1.39 3.52,-2.898 1.93,-2.723 5.16,-6.793 9.67,-12.192 4.51,-5.41 7.33,-8.5 8.44,-9.269 1.39,-0.992 5.3,-5.84 11.72,-14.539 6.44,-8.711 10.75,-14.121 12.94,-16.242 1.34,-1.309 2.21,-2.25 2.61,-2.801 0.4,-0.57 0.46,-1.649 0.19,-3.258 -0.38,-1.672 -1.13,-2.902 -2.25,-3.699 -0.94,-0.66 -1.93,-0.863 -2.96,-0.602 -0.96,0.172 -1.98,1.012 -3.04,2.512 -0.19,0.27 -1.13,1.797 -2.8,4.566 -1.48,2.481 -4.19,6.551 -8.18,12.192 -2.47,3.332 -4.3,5.25 -5.44,5.781 -1.16,0.527 -2.9,-0.039 -5.25,-1.711 -0.28,-0.18 -0.79,-0.57 -1.5,-1.16 -0.72,-0.57 -1.31,-1.031 -1.79,-1.352 -11.24,-8.628 -17.72,-14.207 -19.49,-16.707 -0.86,-1.179 0.1,-3.73 2.89,-7.691 1.84,-2.641 4.81,-6.531 8.88,-11.691 3.73,-4.688 6.39,-8.168 7.98,-10.43 2.46,-3.481 3.26,-6 2.41,-7.598" /><path
         id="path76"
         style="fill:#ffffff;fill-opacity:1;fill-rule:nonzero;stroke:none"
         d="m 1252.5,156.129 c 0.81,-1.777 1.07,-3.207 0.73,-4.309 -0.33,-1.09 -2.98,-2.968 -7.95,-5.621 l -9.9,-5.301 c -8.07,-4.168 -13.07,-6.679 -14.98,-7.507 -1.91,-0.821 -3.41,-1.059 -4.49,-0.743 -1.41,0.422 -2.07,1.184 -1.99,2.262 0.11,1.25 1.15,2.539 3.09,3.91 1.94,1.36 6.43,3.918 13.42,7.668 8.75,4.66 13.17,7.364 13.3,8.082 0.06,1.61 -2.43,7.121 -7.48,16.571 -3.85,7.199 -6.17,10.929 -6.93,11.16 -0.47,0.14 -1.22,-0.063 -2.24,-0.61 -0.8,-0.429 -8.2,-5.16 -22.16,-14.203 -0.45,-0.359 -1.09,-0.758 -1.89,-1.199 -1.33,-0.707 -2.37,-0.859 -3.09,-0.469 -1.09,0.328 -1.74,0.7 -1.96,1.102 -0.61,1.117 1.09,3.387 5.07,6.816 3.97,3.434 8.55,6.532 13.72,9.301 6.5,3.461 9.44,6.281 8.81,8.43 -0.39,1.222 -1.68,4.113 -3.87,8.703 -3.6,7.457 -5.72,13.129 -6.32,16.969 -0.06,0.371 -0.21,0.738 -0.42,1.16 -0.55,1.008 -2.38,0.66 -5.55,-1.012 -0.6,-0.32 -4.25,-2.539 -10.93,-6.629 -9.52,-6.121 -15.08,-9.879 -16.69,-11.269 -0.95,-0.911 -1.89,-1.59 -2.79,-2.09 -2.45,-1.289 -4.45,-1.449 -6.02,-0.469 -0.43,0.297 -0.66,0.508 -0.71,0.609 -0.93,1.719 0.4,3.989 3.99,6.809 5.33,4.18 16.88,11 34.66,20.488 4.47,2.403 6.85,3.543 7.16,3.442 0.88,-0.168 1.32,-1.379 1.33,-3.59 0,-1.692 0.28,-3.059 0.82,-4.07 0.32,-0.622 0.62,-1.04 0.88,-1.278 0.57,-0.613 1.17,-1.472 1.76,-2.594 0.88,-1.617 2.53,-5.308 4.95,-11.066 1.87,-4.473 6.3,-13.523 13.33,-27.141 6.74,-13.089 10.53,-20.531 11.34,-22.312" /><path
         id="path78"
         style="fill:#ffffff;fill-opacity:1;fill-rule:nonzero;stroke:none"
         d="m 1122.98,106.879 c 1.14,-0.43 3.58,0.09 7.36,1.531 3.42,1.328 5.81,2.5 7.16,3.5 1.34,1.012 2.87,1.86 4.58,2.512 1.61,0.617 2.62,1.379 3.01,2.258 0.07,0.16 0.58,0.879 1.49,2.152 0.93,1.289 1.75,2.527 2.44,3.719 0.73,1.199 0.99,2.019 0.83,2.437 -0.3,0.762 -0.03,1.852 0.78,3.274 0.8,1.418 1.23,3.238 1.23,5.468 0.13,1.532 0.04,2.731 -0.29,3.59 -0.03,0.11 -0.72,1.27 -2.08,3.461 -1.9,2.719 -3.76,4.41 -5.54,5.071 -1.8,0.66 -4.45,0.57 -7.94,-0.282 -0.38,-0.019 -1.65,-0.3 -3.85,-0.832 -2.2,-0.539 -3.82,-0.886 -4.87,-1.047 -0.69,-0.14 -2.1,-0.632 -4.25,-1.453 -8.92,-3.429 -14.13,-6.058 -15.65,-7.879 -0.13,-0.3 0.14,-1.367 0.85,-3.187 3.27,-8.481 6.64,-15.133 10.1,-19.973 1.84,-2.508 3.37,-3.949 4.64,-4.32 m 19.52,0.672 c -3.5,-2.449 -6.89,-4.321 -10.23,-5.621 -4.4,-1.68 -8.32,-2.3909 -11.76,-2.1097 -2.11,0.0508 -3.54,0.2307 -4.3,0.5707 -0.73,0.328 -1.58,1.23 -2.53,2.73 -0.94,1.488 -1.76,2.641 -2.45,3.488 -1.56,2.11 -4.46,8.2 -8.71,18.289 -2.55,6.293 -4.88,11.411 -7.02,15.332 -2.13,3.93 -4.27,8.692 -6.42,14.27 -2.77,7.199 -3.92,11.449 -3.43,12.75 0.38,1.25 1.31,2.172 2.83,2.762 0.96,0.359 1.89,0.347 2.78,-0.043 0.84,-0.547 1.59,-1.731 2.31,-3.559 0.65,-1.711 1.93,-5.539 3.85,-11.469 1.43,-4.371 2.2,-6.671 2.29,-6.89 0.57,-1.5 1.24,-2.41 1.98,-2.742 0.41,-0.09 0.88,-0.039 1.42,0.16 1.93,0.761 3.19,2.422 3.81,5 0.27,1.203 1.44,3.32 3.48,6.332 6.9,9.941 10.47,15.57 10.71,16.89 0.11,0.661 1.11,2.7 2.99,6.141 1.81,3.289 3.69,5.309 5.62,6.066 1.61,0.602 2.94,0.704 3.99,0.231 0.44,-0.199 0.7,-0.41 0.79,-0.617 0.16,-0.43 -0.37,-1.942 -1.61,-4.5 -0.82,-1.68 -2.91,-5.082 -6.26,-10.18 -9.12,-13.762 -13.72,-21.32 -13.81,-22.711 -0.07,-0.152 -0.04,-0.391 0.09,-0.723 0.32,-0.847 2.67,-0.687 7.03,0.493 0.68,0.148 2.35,0.609 5.02,1.371 2.65,0.797 4.66,1.32 6.04,1.597 7.74,1.993 12.53,2.942 14.36,2.84 1.82,-0.09 4.09,-1.41 6.79,-3.949 2.29,-2.07 4.42,-5.699 6.41,-10.852 0.15,-0.418 0.37,-1.027 0.59,-1.796 0.25,-0.782 0.42,-1.321 0.55,-1.653 0.32,-0.859 -0.65,-3.969 -2.96,-9.367 -2.3,-5.391 -4.05,-8.621 -5.24,-9.703 -1.08,-1.027 -1.56,-1.707 -1.44,-2.039 0.34,-0.852 -2.18,-3.121 -7.56,-6.789" /><path
         id="path80"
         style="fill:#ffffff;fill-opacity:1;fill-rule:nonzero;stroke:none"
         d="m 970.941,56.3906 c -0.742,-1.0703 -1.753,-1.6992 -3.003,-1.9218 -1.122,-0.1875 -2.028,0 -2.727,0.5898 -0.391,0.293 -0.77,1.4414 -1.125,3.4922 -0.344,2.039 -0.723,5.3008 -1.133,9.789 -1.273,12.8594 -3.144,29.25 -5.609,49.1402 -0.906,7.321 -1.387,11.84 -1.446,13.602 -0.054,1.727 0.219,3.129 0.864,4.168 0.824,1.309 2.027,2.102 3.621,2.359 1.25,0.223 2.34,0 3.269,-0.66 0.801,-0.558 1.387,-1.98 1.789,-4.258 0.457,-2.711 0.735,-7.39 0.813,-14.031 0.012,-2.808 0.23,-5.461 0.652,-7.961 l 0.242,-1.359 c 0.438,-1.211 0.243,-2.809 -0.574,-4.828 -0.469,-1.364 -0.64,-2.383 -0.539,-3.063 0.219,-1.25 1.238,-1.7185 3.051,-1.398 1.594,0.258 3.805,1.281 6.66,3.051 2.293,1.57 4.988,2.609 8.051,3.128 l 4.426,0.758 c 4.332,0.633 6.961,0.903 7.91,0.821 0.941,-0.071 2.031,-0.571 3.234,-1.528 1.113,-0.98 1.903,-1.992 2.373,-3.019 0.46,-1.032 1.12,-3.4026 1.98,-7.1136 0.32,-1.1093 0.68,-2.8476 1.08,-5.2382 0.55,-3.1797 0.8,-5.75 0.79,-7.75 -0.03,-2.461 0.21,-5.2188 0.72,-8.2891 0.42,-2.3828 0.2,-4.5195 -0.65,-6.4102 -0.84,-1.9023 -1.99,-2.9687 -3.47,-3.2304 -0.69,-0.1016 -1.52,0.0312 -2.538,0.4609 -1.261,0.5781 -1.98,1.3477 -2.132,2.2578 -0.024,0.1094 -0.102,1.3203 -0.274,3.6211 -0.129,3.4883 -0.047,6.0781 0.25,7.75 0.449,1.4805 0.301,5.1289 -0.469,10.961 l -0.629,3.7382 c -0.574,3.2891 -1.343,5.2618 -2.328,5.9219 -0.988,0.6406 -3.074,0.6796 -6.25,0.1606 -3.062,-0.5317 -6.879,-1.9418 -11.441,-4.2504 -4.574,-2.3008 -7.156,-4.0821 -7.762,-5.3399 -0.414,-1.0117 0.09,-6.6523 1.488,-16.9219 1.399,-10.2812 1.688,-16.0078 0.836,-17.1992" /><path
         id="path82"
         style="fill:#ffffff;fill-opacity:1;fill-rule:nonzero;stroke:none"
         d="m 874.863,48.8398 c -0.652,-0.7187 -1.89,-1.1406 -3.726,-1.2187 -1.832,-0.1094 -3.063,0.1094 -3.68,0.6484 -0.23,0.2305 -0.379,0.6211 -0.402,1.1914 -0.125,2.5196 1.308,6.9297 4.312,13.1993 0.528,1.0703 1.227,2.539 2.098,4.4414 0.883,1.8867 1.375,3 1.469,3.3672 2.121,5.4023 4.941,12.1328 8.437,20.1523 0.805,2.1094 1.18,3.75 1.125,4.8984 -0.07,1.2696 0.379,2.5625 1.352,3.8711 1.078,1.4494 2.191,4.1094 3.371,7.9684 0.687,2.34 1.652,4.7 2.914,7.082 1.25,2.368 2.164,4.598 2.75,6.707 0.769,2.922 1.73,5.282 2.914,7.071 1.387,2.14 3.004,3.32 4.824,3.531 1.711,0.332 3.051,0.172 4.004,-0.48 0.723,-0.52 0.605,-1.688 -0.336,-3.461 -0.73,-1.321 -1.59,-3.598 -2.566,-6.879 -0.594,-1.879 -2.008,-5.09 -4.254,-9.66 -2.235,-4.551 -3.633,-8 -4.196,-10.34 -1,-2.93 -1.699,-4.8714 -2.109,-5.8089 l -1.699,-4.0625 6.191,-5.7266 c 4.36,-3.9101 7.18,-6.0234 8.461,-6.2929 1.528,-0.6172 2.742,-1.5899 3.613,-2.918 0.758,-1.3398 2.43,-3.3906 5,-6.1328 4.633,-4.8281 7.016,-8.5 7.153,-11.0274 0.035,-0.582 0,-0.9296 -0.113,-1.0507 -0.747,-1.1914 -2.258,-1.8594 -4.575,-1.9805 -0.562,-0.0195 -1.316,0.0586 -2.257,0.2422 -1.161,0.2695 -2.672,1.6992 -4.543,4.25 -4,5.8867 -9.446,11.707 -16.313,17.4492 -3.016,2.5 -5.047,3.7109 -6.078,3.6602 -1.149,-0.0625 -2.008,-1.1993 -2.578,-3.4219 -0.496,-1.7578 -1.617,-4.5196 -3.371,-8.3086 -1.961,-4.25 -3.465,-8.4805 -4.52,-12.6797 -1.238,-4.6914 -2.133,-7.4414 -2.672,-8.2813" /><path
         id="path84"
         style="fill:#ffffff;fill-opacity:1;fill-rule:nonzero;stroke:none"
         d="m 775.426,54.7109 c 0.019,0.3399 1.558,2.1993 4.605,5.5704 3.063,3.3789 4.59,5.1796 4.614,5.4101 0.043,0.6992 3.656,3.8906 10.843,9.5781 7.192,5.6797 11.719,8.9297 13.621,9.7305 2.032,0.9102 3.075,1.9688 3.164,3.25 0.118,1.7188 -1.261,3.4805 -4.136,5.2891 -2.867,2.0312 -6.641,6.1601 -11.293,12.3519 -5.645,7.058 -9.977,12.257 -12.981,15.57 -3.336,3.578 -4.988,5.598 -4.953,6.059 0.07,1.019 0.813,1.902 2.246,2.609 1.434,0.711 3.074,1 4.907,0.871 1.136,-0.07 2.125,-0.418 2.96,-1.051 0.813,-0.629 2.176,-2.23 4.082,-4.769 4.262,-5.36 8.954,-10.989 14.102,-16.871 5.148,-5.879 8.016,-8.8402 8.59,-8.8793 0.914,-0.0508 1.683,0.2891 2.312,1.0623 0.633,0.77 1.055,2.867 1.286,6.317 0.125,1.832 -0.024,4.761 -0.446,8.773 -0.426,4 -0.586,6.809 -0.484,8.418 0.094,1.262 0.828,2.48 2.238,3.648 1.399,1.184 2.797,1.723 4.172,1.633 1.492,-0.101 2.559,-0.511 3.211,-1.25 0.516,-0.851 0.379,-7.179 -0.402,-19.011 -0.344,-5.051 -0.641,-8.711 -0.907,-11.02 -0.379,-5.3789 -0.722,-13.1992 -1.054,-23.4687 -0.297,-9.5508 -0.547,-16.0508 -0.789,-19.4922 -0.289,-4.3672 -0.871,-7.0899 -1.754,-8.1993 -0.871,-1.0703 -2.18,-1.5703 -3.91,-1.4492 -1.375,0.0782 -2.602,0.5391 -3.715,1.3711 -1.102,0.8203 -1.617,1.75 -1.547,2.7774 0.012,0.1328 0.055,0.25 0.125,0.4218 0.066,0.168 0.113,0.3086 0.113,0.4297 0.301,1.0196 0.84,4.3282 1.606,9.9297 0.793,5.6016 1.285,9.9492 1.48,13.0586 0.102,1.4922 0.113,2.4024 0.012,2.7617 -0.379,2.9102 -1.25,4.4102 -2.637,4.5078 -1.734,0.1016 -4.668,-1.8164 -8.875,-5.8164 -12.512,-11.2812 -18.805,-17.4414 -18.871,-18.4609 -0.059,-0.8125 -1,-1.9219 -2.824,-3.3594 -1.821,-1.4297 -3.207,-2.1328 -4.125,-2.0625 -0.918,0.0625 -1.926,0.5625 -3.004,1.5 -1.09,0.9414 -1.629,1.6914 -1.582,2.2617" /><path
         id="path86"
         style="fill:#ffffff;fill-opacity:1;fill-rule:nonzero;stroke:none"
         d="m 678.84,71.6602 c 3.14,-2.4102 5.344,-3.9102 6.57,-4.5196 1.227,-0.5898 3.199,-1.1718 5.906,-1.7187 2.704,-0.5508 5.274,-0.8906 7.715,-1.043 1.856,-0.1289 4.278,0.3594 7.27,1.5117 2.992,1.1602 5.457,2.4805 7.406,3.9688 2.086,1.5625 4.301,3.8008 6.641,6.6601 2.347,2.8789 3.988,5.4414 4.918,7.7305 0.183,0.3086 0.558,1.3008 1.121,2.9414 0.574,1.6484 1.054,2.8477 1.433,3.5781 0.313,0.8907 0.93,2.2227 1.879,4.0313 0.965,1.8008 1.586,3.4297 1.883,4.8906 l 0.379,1.8596 c 0.297,2.07 0.238,5.14 -0.16,9.211 -0.403,4.078 -0.93,6.82 -1.582,8.238 -0.781,1.93 -2.239,4.488 -4.336,7.672 -2.121,3.187 -3.934,5.418 -5.445,6.648 -1.364,1.352 -2.661,2.25 -3.84,2.719 -1.203,0.481 -4.004,1.172 -8.395,2.063 -4.402,0.898 -7.269,1.367 -8.609,1.398 -1.356,0.051 -3.453,-0.352 -6.328,-1.191 -4.828,-1.239 -9.207,-3.43 -13.141,-6.567 -3.922,-3.133 -6.227,-6.344 -6.879,-9.621 -0.379,-1.801 -0.894,-3.223 -1.582,-4.25 -1.262,-1.621 -2.777,-6.723 -4.519,-15.301 -0.481,-2.371 -0.594,-3.5583 -0.379,-3.6091 0.343,-0.082 0.769,-2.039 1.273,-5.9023 0.746,-6.7266 1.664,-11.168 2.754,-13.3398 1.09,-2.1485 3.77,-4.8477 8.047,-8.0586 m 19.765,-13.711 c -2.843,-0.1289 -6.476,0.25 -10.878,1.1524 -4.735,0.957 -7.739,1.9882 -9.059,3.0781 -2.719,2.1914 -6.582,4.2812 -11.578,6.2422 -0.895,0.2773 -2.102,1.5781 -3.625,3.9101 -1.535,2.2969 -2.613,4.4571 -3.27,6.4571 -0.445,1.2617 -0.711,4.1093 -0.812,8.5312 -0.102,4.4414 -0.231,7.1406 -0.379,8.1016 -0.309,2.5273 0.07,6.4491 1.148,11.7501 0.825,4.058 1.926,8.008 3.289,11.84 2.981,8.32 8.579,15.047 16.786,20.207 7.246,4.39 14.722,6.511 22.441,6.351 2.465,-0.039 6.121,-0.539 10.969,-1.531 4.164,-0.84 6.718,-1.59 7.636,-2.25 1.891,-1.09 5.516,-5.578 10.836,-13.488 3.016,-4.242 4.954,-8.571 5.813,-12.969 0.984,-4.434 1.375,-7.102 1.203,-8.012 -0.148,-0.672 -0.937,-2.031 -2.418,-4.082 l -2.144,-2.726 1.652,-3.1722 c 1.226,-2.0078 1.57,-3.539 0.996,-4.5898 l -2.719,-6.5 c -3.644,-8.6484 -8.609,-15.4609 -14.902,-20.4102 -6.297,-4.9296 -13.277,-7.5703 -20.985,-7.8906" /><path
         id="path88"
         style="fill:#ffffff;fill-opacity:1;fill-rule:nonzero;stroke:none"
         d="m 588.383,139.59 c 0.387,-1.711 1.683,-3.508 3.906,-5.36 2.215,-1.859 4.461,-3.191 6.754,-3.968 3.187,-0.992 6.676,-1.864 10.434,-2.602 3.75,-0.75 5.972,-1 6.671,-0.75 0.657,0.129 1.321,1.18 2.008,3.141 0.297,0.859 1.676,5.75 4.141,14.629 2.004,7.23 2.797,11.461 2.371,12.711 -0.309,1.199 -1.121,2.031 -2.43,2.488 -1.308,0.441 -2.523,0.812 -3.633,1.062 -11.398,2.969 -19.621,2.649 -24.652,-0.98 -0.984,-0.75 -1.711,-1.781 -2.156,-3.09 -0.379,-1.09 -0.961,-3.312 -1.766,-6.691 -1.41,-5.848 -1.961,-9.379 -1.648,-10.59 m -5.551,-44.1095 c 1.5,-1.9805 4.563,-3.8907 9.16,-5.7188 1.274,-0.5625 2.774,-1.1328 4.52,-1.7422 2.394,-0.8203 4.551,-0.9101 6.488,-0.2382 1.102,0.3593 2.477,2.9179 4.129,7.7187 1.684,4.891 2.637,8.512 2.851,10.891 0.129,1.418 0.356,2.609 0.688,3.589 0.301,0.872 0.828,1.84 1.562,2.93 1.364,1.852 1.708,3.371 1.032,4.578 -0.426,0.871 -0.965,1.422 -1.617,1.66 -0.653,0.223 -2.008,0.5 -4.082,0.864 -5.344,0.738 -9.012,1.078 -10.997,0.957 -1.984,-0.098 -4.128,-0.86 -6.445,-2.239 -5.055,-3.011 -7.933,-5.55 -8.652,-7.609 -0.348,-0.98 -0.539,-1.762 -0.621,-2.351 -1.192,-5.559 -0.528,-9.9809 1.984,-13.2895 m 19.492,-15.5 c -2.441,-0.0117 -6.504,0.9687 -12.156,2.9297 -4.895,1.6796 -8.367,3.25 -10.434,4.6992 -2.187,1.7304 -4.125,4.582 -5.8,8.5703 -1.594,3.8513 -2.465,6.6093 -2.602,8.2893 -0.16,1.711 0.262,3.972 1.238,6.793 0.938,2.726 2.051,4.777 3.313,6.16 1.273,1.398 3.738,3.16 7.406,5.308 3.188,1.821 4.93,3.168 5.231,4.032 0.148,0.437 -0.977,1.929 -3.395,4.468 -2.41,2.168 -3.773,4.399 -4.082,6.7 -0.332,2.562 -0.332,4.308 0.012,5.3 0.527,1.52 0.746,2.84 0.64,3.981 -0.148,3.09 0.321,6.219 1.41,9.359 0.266,0.782 0.665,1.551 1.18,2.352 0.988,1.469 1.836,2.84 2.488,4.058 0.899,1.532 2.903,2.942 6.032,4.219 3.133,1.301 5.965,1.942 8.508,1.91 1.468,-0.019 3.679,0.063 6.675,0.262 1.418,0.231 5.043,-0.199 10.867,-1.312 5.836,-1.09 10.215,-2.137 13.165,-3.161 0.214,-0.078 0.503,-0.207 0.871,-0.386 0.355,-0.203 0.593,-0.313 0.699,-0.332 1.629,-0.93 2.59,-1.969 2.855,-3.098 0.285,-1.141 -0.058,-3.062 -0.988,-5.781 -0.758,-2.172 -1.434,-3.949 -2.016,-5.332 -1.57,-3.84 -2.82,-7.117 -3.761,-9.84 -1.055,-3.047 -2.524,-7.527 -4.379,-13.457 -1.871,-5.942 -3.188,-9.992 -3.934,-12.16 -2.043,-6.973 -3.933,-13.141 -5.664,-18.512 l -3.449,-11.5898 -3.145,-2.1993 c -2.121,-1.582 -4.39,-2.332 -6.785,-2.2304" /><path
         id="path90"
         style="fill:#ffffff;fill-opacity:1;fill-rule:nonzero;stroke:none"
         d="m 492.547,132.16 c -1.399,0.559 -2.926,1.192 -4.563,1.871 -1.652,0.699 -2.925,1.239 -3.832,1.61 -0.906,0.379 -1.617,0.699 -2.132,0.961 -1.649,0.808 -2.864,1.738 -3.633,2.757 -1.25,1.391 -1.641,2.539 -1.18,3.473 0.262,0.527 0.754,0.859 1.465,1.008 0.769,0.269 4.953,-1.16 12.531,-4.27 5.977,-2.449 9.988,-3.832 12.027,-4.129 2.02,-0.293 4.75,0.118 8.141,1.27 2.156,0.73 5.141,2.469 8.934,5.219 3.797,2.742 6.433,5.09 7.922,7.05 4.757,6.25 8.3,11.68 10.593,16.34 1.024,2.051 1.539,3.469 1.528,4.25 -0.059,1.168 0.125,2.7 0.527,4.551 0.605,3.809 -0.828,7.801 -4.301,11.949 -1.652,2.11 -2.578,3.602 -2.785,4.469 -0.426,1.742 -1.629,3.66 -3.625,5.75 -1.992,2.063 -4.059,3.641 -6.234,4.723 -1.035,0.5 -2.032,0.797 -3.004,0.91 -1.86,0.16 -4.211,0.598 -7.043,1.359 -2.258,0.617 -3.942,0.891 -5.055,0.867 -1.113,-0.027 -2.82,-0.429 -5.125,-1.207 -5,-1.769 -8.371,-2.23 -10.113,-1.359 -0.824,0.418 -1.422,1.148 -1.789,2.238 -0.422,0.969 -0.469,1.762 -0.16,2.379 0.402,0.832 1.789,1.692 4.152,2.571 4.777,1.878 10.707,2.16 17.758,0.839 4.324,-0.597 6.57,-0.871 6.719,-0.82 0.828,0.109 3.566,-0.98 8.199,-3.297 l 7.121,-3.512 2.797,-5.238 c 2.855,-5.652 4.804,-8.73 5.836,-9.254 0.711,-0.347 1.683,-1.629 2.91,-3.847 1.207,-2.2 1.902,-3.93 2.055,-5.161 0.16,-0.71 0.042,-2.109 -0.321,-4.171 -0.379,-2.071 -0.883,-4.438 -1.527,-7.149 -0.617,-2.699 -0.973,-4.109 -1.02,-4.199 -0.195,-0.941 -0.527,-1.871 -0.984,-2.801 -1.746,-3.5 -3.371,-5.781 -4.922,-6.801 -0.777,-0.527 -2.027,-2.019 -3.769,-4.507 -4.555,-6.602 -7.727,-10.293 -9.532,-11.071 -1.488,-0.679 -3.519,-1.929 -6.086,-3.73 -4.265,-3.153 -9.562,-4.781 -15.879,-4.852 -3.554,0.09 -7.761,1.082 -12.601,2.961" /><path
         id="path92"
         style="fill:#ffffff;fill-opacity:1;fill-rule:nonzero;stroke:none"
         d="m 386.313,199.48 c 0.195,0.282 2.453,1.141 6.773,2.54 4.324,1.41 6.547,2.199 6.676,2.39 0.379,0.578 5.113,1.539 14.172,2.91 9.066,1.352 14.629,1.91 16.668,1.649 2.203,-0.219 3.66,0.191 4.359,1.25 0.949,1.441 0.641,3.652 -0.965,6.66 -1.469,3.191 -2.672,8.633 -3.633,16.312 -1.379,8.957 -2.547,15.61 -3.5,19.989 -1.121,4.742 -1.558,7.312 -1.293,7.691 0.575,0.871 1.649,1.25 3.254,1.16 1.594,-0.101 3.153,-0.672 4.692,-1.672 0.961,-0.648 1.636,-1.437 2.039,-2.398 0.39,-0.949 0.781,-3.02 1.16,-6.172 1.031,-6.777 2.316,-13.988 3.84,-21.648 1.535,-7.672 2.547,-11.661 3.015,-11.981 0.782,-0.5 1.629,-0.578 2.543,-0.238 0.93,0.359 2.352,1.957 4.27,4.84 1.019,1.539 2.336,4.148 3.976,7.828 1.618,3.691 2.891,6.199 3.786,7.539 0.687,1.062 1.949,1.742 3.746,2.07 1.8,0.321 3.281,0.102 4.437,-0.679 1.238,-0.821 1.949,-1.719 2.145,-2.668 0.035,-1 -3.235,-6.422 -9.801,-16.293 -2.82,-4.207 -4.91,-7.25 -6.274,-9.09 -3.003,-4.508 -7.199,-11.129 -12.601,-19.84 -5.008,-8.141 -8.473,-13.637 -10.387,-16.52 -2.43,-3.64 -4.289,-5.711 -5.594,-6.23 -1.32,-0.5 -2.695,-0.277 -4.128,0.68 -1.149,0.761 -1.997,1.781 -2.547,3.043 -0.528,1.257 -0.516,2.308 0.047,3.187 0.07,0.09 0.171,0.191 0.32,0.301 0.137,0.121 0.242,0.219 0.312,0.308 0.766,0.743 2.875,3.34 6.352,7.813 3.461,4.469 6.051,7.988 7.762,10.578 0.847,1.242 1.304,2.063 1.398,2.402 1.113,2.707 1.102,4.45 -0.047,5.219 -1.433,0.961 -4.965,0.738 -10.582,-0.629 -16.476,-3.531 -25.008,-5.75 -25.582,-6.609 -0.445,-0.672 -1.808,-1.184 -4.113,-1.512 -2.293,-0.328 -3.828,-0.238 -4.586,0.281 -0.781,0.5 -1.399,1.43 -1.871,2.789 -0.481,1.36 -0.563,2.27 -0.238,2.75" /><path
         id="path94"
         style="fill:#ffffff;fill-opacity:1;fill-rule:nonzero;stroke:none"
         d="m 310.957,262.34 c 1.535,-3.649 2.68,-6.051 3.449,-7.192 0.77,-1.128 2.18,-2.609 4.266,-4.437 2.062,-1.832 4.117,-3.41 6.156,-4.75 1.551,-1.039 3.899,-1.813 7.063,-2.313 3.175,-0.488 5.972,-0.578 8.406,-0.257 2.578,0.32 5.605,1.148 9.082,2.48 3.449,1.301 6.168,2.731 8.105,4.231 0.309,0.179 1.121,0.847 2.442,1.98 1.316,1.148 2.328,1.938 3.027,2.398 0.699,0.622 1.902,1.469 3.633,2.559 1.73,1.082 3.086,2.203 4.07,3.313 l 1.25,1.418 c 1.297,1.628 2.785,4.312 4.461,8.05 1.684,3.739 2.602,6.391 2.738,7.942 0.29,2.047 0.301,4.988 0.059,8.808 -0.23,3.821 -0.699,6.641 -1.398,8.489 -0.516,1.832 -1.168,3.261 -1.973,4.273 -0.789,1 -2.879,2.988 -6.246,5.957 -3.371,2.973 -5.633,4.813 -6.766,5.52 -1.148,0.703 -3.176,1.41 -6.078,2.121 -4.816,1.332 -9.687,1.621 -14.664,0.851 -4.976,-0.761 -8.555,-2.402 -10.766,-4.902 -1.214,-1.379 -2.386,-2.348 -3.488,-2.91 -1.902,-0.778 -5.754,-4.438 -11.543,-11 -1.594,-1.809 -2.304,-2.789 -2.144,-2.949 0.273,-0.231 -0.344,-2.149 -1.836,-5.739 -2.703,-6.211 -4.125,-10.519 -4.266,-12.929 -0.137,-2.422 0.852,-6.09 2.961,-11.012 m 10.297,-21.738 c -2.524,1.308 -5.473,3.437 -8.844,6.41 -3.621,3.199 -5.73,5.597 -6.328,7.187 -1.262,3.27 -3.566,7 -6.937,11.192 -0.606,0.691 -1.008,2.418 -1.192,5.191 -0.16,2.758 -0.035,5.18 0.402,7.238 0.25,1.321 1.434,3.91 3.555,7.801 2.121,3.891 3.36,6.289 3.703,7.211 0.996,2.34 3.278,5.547 6.867,9.609 2.731,3.11 5.653,5.981 8.75,8.618 6.731,5.722 14.938,8.773 24.625,9.14 8.461,0.211 16.008,-1.699 22.625,-5.679 2.11,-1.25 5.032,-3.52 8.735,-6.782 3.211,-2.816 5.035,-4.738 5.504,-5.769 1.101,-1.887 1.996,-7.59 2.66,-17.09 0.492,-5.18 0.012,-9.899 -1.434,-14.149 -1.351,-4.332 -2.34,-6.839 -2.945,-7.539 -0.461,-0.511 -1.836,-1.281 -4.129,-2.332 l -3.223,-1.3 -0.148,-3.571 c 0.07,-2.347 -0.402,-3.847 -1.434,-4.476 l -5.593,-4.274 c -7.477,-5.679 -15.168,-9.109 -23.094,-10.258 -7.91,-1.16 -15.293,0.059 -22.125,3.622" /><path
         id="path96"
         style="fill:#ffffff;fill-opacity:1;fill-rule:nonzero;stroke:none"
         d="m 223.23,336.031 c -1.652,1.778 -3.441,3.731 -5.39,5.86 -1.938,2.121 -3.43,3.757 -4.473,4.91 -1.043,1.148 -1.855,2.078 -2.453,2.789 -1.777,2.101 -2.82,3.801 -3.129,5.051 -0.355,1.5 -0.094,2.621 0.789,3.359 0.703,0.59 1.699,0.82 2.996,0.719 0.973,-0.078 2.153,-0.821 3.551,-2.199 1.391,-1.391 5.219,-5.532 11.488,-12.438 8.59,-9.48 13.063,-14.07 13.407,-13.773 0.355,0.293 2.382,-1.75 6.086,-6.161 l 2.226,-2.648 c 2.223,-2.629 4.059,-3.871 5.504,-3.711 1.441,0.16 4.195,1.949 8.242,5.352 l 7.524,6.359 c 2.566,2.141 7.289,6.082 14.179,11.832 6.914,5.727 11.731,9.738 14.461,12.047 9.77,8.07 15.41,12.07 16.957,12.043 1.399,-0.051 2.524,-0.59 3.407,-1.652 0.824,-0.981 1.168,-2.18 1.043,-3.641 -0.082,-0.969 -1.356,-2.5 -3.821,-4.578 -2.293,-1.93 -13.414,-10.621 -33.363,-26.051 -3.313,-2.5 -7.27,-5.668 -11.832,-9.531 -3.176,-2.668 -4.953,-4.309 -5.332,-4.938 -1.113,-1.543 -2.328,-2.859 -3.649,-3.98 -1.488,-1.25 -2.992,-2.071 -4.492,-2.43 -3.258,-0.781 -7.886,1.777 -13.929,7.68 -1.262,1.34 -3.774,3.679 -7.489,7.031 -1.824,1.457 -6.008,5.699 -12.508,12.699" /><path
         id="path98"
         style="fill:#ffffff;fill-opacity:1;fill-rule:nonzero;stroke:none"
         d="m 161.602,446.148 c 0.402,-3.937 0.8,-6.566 1.191,-7.878 0.414,-1.309 1.344,-3.141 2.785,-5.489 1.457,-2.351 2.949,-4.472 4.52,-6.34 1.168,-1.453 3.199,-2.882 6.078,-4.261 2.887,-1.399 5.547,-2.309 7.957,-2.711 2.566,-0.43 5.707,-0.539 9.398,-0.297 3.696,0.269 6.699,0.828 8.992,1.707 0.368,0.082 1.34,0.473 2.922,1.18 1.594,0.711 2.785,1.179 3.602,1.41 0.848,0.39 2.246,0.851 4.219,1.39 1.972,0.532 3.578,1.192 4.863,1.973 l 1.613,1 c 1.711,1.188 3.899,3.316 6.594,6.406 2.707,3.071 4.348,5.344 4.941,6.801 0.86,1.883 1.743,4.691 2.625,8.402 0.883,3.731 1.262,6.559 1.137,8.508 0.047,1.91 -0.172,3.492 -0.633,4.68 -0.468,1.203 -1.879,3.711 -4.254,7.531 -2.347,3.828 -3.964,6.238 -4.859,7.25 -0.883,0.988 -2.625,2.27 -5.184,3.801 -4.218,2.66 -8.816,4.359 -13.793,5.078 -4.964,0.711 -8.875,0.223 -11.714,-1.551 -1.575,-0.957 -2.973,-1.547 -4.188,-1.758 -2.051,-0.179 -6.797,-2.57 -14.238,-7.16 -2.067,-1.269 -3.028,-2 -2.914,-2.199 0.183,-0.289 -0.961,-1.93 -3.426,-4.949 -4.406,-5.152 -7.031,-8.863 -7.856,-11.133 -0.824,-2.269 -0.964,-6.07 -0.378,-11.391 m 3.519,-23.796 c -2.039,1.988 -4.242,4.91 -6.605,8.718 -2.532,4.11 -3.84,7.02 -3.942,8.719 -0.265,3.481 -1.386,7.731 -3.383,12.731 -0.378,0.832 -0.265,2.601 0.379,5.3 0.641,2.692 1.465,4.961 2.5,6.801 0.606,1.211 2.496,3.34 5.664,6.449 3.153,3.078 5.032,5.02 5.641,5.809 1.637,1.953 4.758,4.34 9.367,7.191 3.52,2.168 7.153,4.071 10.879,5.7 8.117,3.511 16.856,4.019 26.223,1.539 8.164,-2.27 14.824,-6.258 19.984,-12 1.664,-1.829 3.785,-4.84 6.387,-9.047 2.234,-3.633 3.43,-6 3.578,-7.133 0.504,-2.117 -0.313,-7.828 -2.434,-17.117 -1.043,-5.102 -2.875,-9.481 -5.492,-13.114 -2.566,-3.75 -4.226,-5.859 -5.019,-6.339 -0.598,-0.368 -2.133,-0.707 -4.633,-1.047 l -3.461,-0.293 -1.172,-3.36 c -0.629,-2.289 -1.523,-3.578 -2.691,-3.89 l -6.594,-2.449 c -8.809,-3.258 -17.164,-4.29 -25.074,-3.079 -7.914,1.207 -14.621,4.508 -20.102,9.911" /><path
         id="path100"
         style="fill:#ffffff;fill-opacity:1;fill-rule:nonzero;stroke:none"
         d="m 680.648,1637.07 c -0.25,1.95 -0.066,3.4 0.575,4.34 0.632,0.94 3.726,1.95 9.265,3.03 l 11.016,2.12 c 8.957,1.62 14.461,2.53 16.535,2.75 2.051,0.23 3.566,0.01 4.508,-0.62 1.226,-0.83 1.625,-1.74 1.234,-2.75 -0.48,-1.15 -1.843,-2.09 -4.113,-2.82 -2.258,-0.73 -7.281,-1.85 -15.09,-3.36 -9.723,-1.87 -14.742,-3.14 -15.09,-3.8 -0.527,-1.51 0.219,-7.51 2.25,-18.02 1.559,-8.03 2.66,-12.26 3.336,-12.72 0.41,-0.27 1.168,-0.31 2.305,-0.08 0.906,0.16 9.355,2.52 25.371,7.01 0.551,0.23 1.262,0.42 2.168,0.6 1.469,0.28 2.5,0.13 3.086,-0.46 0.937,-0.65 1.465,-1.2 1.547,-1.64 0.242,-1.24 -2.051,-2.93 -6.856,-5.01 -4.816,-2.11 -10.101,-3.71 -15.871,-4.83 -7.234,-1.4 -10.867,-3.21 -10.902,-5.45 0.023,-1.29 0.391,-4.43 1.137,-9.45 1.226,-8.21 1.57,-14.23 1.031,-18.1 -0.047,-0.35 -0.024,-0.76 0.047,-1.2 0.226,-1.14 2.086,-1.38 5.593,-0.69 0.676,0.14 4.817,1.17 12.418,3.1 10.891,3.05 17.313,4.98 19.262,5.83 1.18,0.59 2.281,0.97 3.289,1.17 2.719,0.53 4.68,0.08 5.883,-1.32 0.32,-0.42 0.481,-0.67 0.504,-0.79 0.379,-1.93 -1.57,-3.7 -5.824,-5.35 -6.328,-2.4 -19.387,-5.49 -39.168,-9.33 -4.977,-0.96 -7.602,-1.35 -7.864,-1.16 -0.792,0.43 -0.847,1.7 -0.218,3.82 0.515,1.62 0.664,3 0.437,4.13 -0.129,0.68 -0.277,1.17 -0.461,1.51 -0.379,0.73 -0.687,1.73 -0.925,2.98 -0.344,1.81 -0.84,5.81 -1.458,12.03 -0.46,4.83 -2.031,14.78 -4.714,29.86 -2.567,14.51 -3.989,22.73 -4.243,24.67" /><path
         id="path102"
         style="fill:#ffffff;fill-opacity:1;fill-rule:nonzero;stroke:none"
         d="m 822.738,1657.99 c 5.34,1.23 9.961,1.96 13.871,2.19 3.11,0.18 5.024,-0.11 5.77,-0.88 0.605,-0.66 1.156,-5.35 1.672,-14.08 l 0.621,-10.87 0.41,-7.06 c 0.656,-11.26 1.285,-18.27 1.906,-21 1.981,-8.53 3.153,-15.6 3.473,-21.23 0.23,-3.91 0.012,-6.28 -0.633,-7.13 -0.433,-0.6 -1.613,-0.95 -3.562,-1.07 -1.961,-0.11 -3.188,0.1 -3.68,0.64 -0.723,0.66 -0.988,2.26 -0.793,4.8 0.09,0.47 0.102,1.34 0.023,2.6 -0.101,1.83 -0.515,4.06 -1.238,6.67 -1.012,3.41 -2.098,14.24 -3.269,32.51 -1.262,17.9 -2.075,27.13 -2.454,27.7 -0.492,0.43 -1.652,0.6 -3.484,0.49 -3.465,-0.21 -8.07,-1.04 -13.875,-2.53 -4.437,-1.06 -7.016,-2.13 -7.773,-3.21 -0.735,-1.09 -0.942,-4.61 -0.594,-10.58 l 0.355,-6.04 c 0.457,-8.05 0.559,-13.84 0.297,-17.37 -0.254,-3.53 -1.066,-7.4 -2.441,-11.64 -0.106,-0.24 -0.289,-0.82 -0.586,-1.76 l -0.871,-2.82 c -0.297,-0.94 -0.539,-1.76 -0.723,-2.47 -0.871,-2.82 -2.844,-5.69 -5.906,-8.64 -6.121,-5.77 -11.649,-8.8 -16.59,-9.08 -2.547,-0.14 -3.851,0.76 -3.965,2.71 -0.117,1.84 2.098,3.58 6.614,5.23 2.589,0.95 4.781,2.06 6.558,3.32 3.086,2.36 5.789,8.39 8.117,18.1 1.008,4.55 1.196,12.29 0.563,23.21 -0.641,11.27 -0.723,17.6 -0.231,19.02 0.782,2.35 2.754,4.24 5.907,5.7 3.14,1.44 8.632,2.97 16.511,4.57" /><path
         id="path104"
         style="fill:#ffffff;fill-opacity:1;fill-rule:nonzero;stroke:none"
         d="m 906.871,1609.22 c -3.383,1.16 -5.824,1.79 -7.316,1.89 -1.606,0.11 -3.028,-0.37 -4.254,-1.43 -1.113,-1.08 -1.801,-3.52 -2.051,-7.3 -0.141,-1.97 -0.723,-6.07 -1.73,-12.36 -0.336,-1.46 -0.563,-3.13 -0.68,-4.95 -0.102,-1.4 0.164,-2.44 0.816,-3.19 0.961,-1.1 2.188,-1.58 3.703,-1.46 0.457,-0.04 1.789,0.04 4,0.25 2.204,0.18 3.934,0.35 5.231,0.5 3.93,0.19 6.957,0.72 9.101,1.62 2.133,0.88 4.024,2.3 5.664,4.28 1.754,2.07 2.719,4.36 2.903,6.9 0.101,1.49 -0.184,3.23 -0.852,5.25 -0.457,1.64 -2.097,3.43 -4.906,5.35 -2.809,1.93 -6.031,3.47 -9.629,4.65 m -13.769,46.12 c 1.214,1.07 2.531,1.56 3.91,1.46 0.789,-0.05 1.465,-0.39 1.992,-1.01 0.207,-0.47 0.219,-1.9 0.047,-4.31 -0.196,-2.99 -0.676,-7.41 -1.434,-13.24 -1.144,-10.07 -1.765,-15.62 -1.836,-16.66 l -0.066,-0.86 c 0.379,-1.29 3.359,-2.42 8.953,-3.38 6.488,-1.15 12.727,-3.55 18.699,-7.18 1.895,-1.18 3.5,-2.84 4.852,-5.01 0.941,-1.45 1.492,-2.64 1.664,-3.58 0.16,-0.94 0.16,-2.72 -0.035,-5.36 -0.45,-6.54 -2.098,-11.22 -4.953,-14.02 -2.34,-2.27 -6.825,-4.18 -13.461,-5.73 -6.629,-1.57 -12.637,-2.17 -18.036,-1.79 -0.23,0.01 -0.621,0.07 -1.191,0.17 -0.574,0.1 -0.977,0.16 -1.203,0.18 -3.992,0.61 -6.344,1.35 -7.031,2.21 -0.7,0.85 -0.895,3.29 -0.618,7.31 0.333,4.83 0.938,10.32 1.821,16.48 0.906,6.18 1.594,9.53 2.09,10.08 0.664,1.11 1.445,8.38 2.371,21.81 0.828,10.21 1.386,16.31 1.711,18.32 0.308,1.99 0.89,3.37 1.754,4.11" /><path
         id="path106"
         style="fill:#ffffff;fill-opacity:1;fill-rule:nonzero;stroke:none"
         d="m 1010.64,1643.07 c 1.49,-0.19 3.12,-0.38 4.9,-0.61 1.78,-0.23 3.14,-0.41 4.11,-0.54 0.97,-0.13 1.74,-0.25 2.31,-0.37 1.81,-0.34 3.22,-0.91 4.24,-1.69 1.56,-1.01 2.25,-2.04 2.04,-3.06 -0.11,-0.56 -0.49,-1.01 -1.13,-1.35 -0.68,-0.46 -5.09,-0.18 -13.22,0.82 -6.41,0.79 -10.64,1.05 -12.68,0.81 -2.042,-0.25 -4.554,-1.39 -7.526,-3.37 -1.891,-1.28 -4.297,-3.75 -7.235,-7.4 -2.945,-3.64 -4.871,-6.6 -5.789,-8.88 -2.945,-7.29 -4.906,-13.47 -5.902,-18.55 -0.438,-2.27 -0.563,-3.77 -0.348,-4.52 0.356,-1.13 0.598,-2.64 0.692,-4.54 0.421,-3.83 2.851,-7.29 7.3,-10.39 2.157,-1.58 3.442,-2.77 3.875,-3.57 0.86,-1.58 2.536,-3.1 5.012,-4.58 2.453,-1.48 4.871,-2.45 7.246,-2.91 1.137,-0.22 2.175,-0.24 3.155,-0.08 1.82,0.34 4.21,0.51 7.14,0.54 2.35,0 4.05,0.17 5.12,0.49 1.05,0.33 2.6,1.17 4.62,2.53 4.33,3.03 7.47,4.35 9.4,3.98 0.89,-0.18 1.66,-0.74 2.3,-1.7 0.67,-0.82 0.92,-1.57 0.79,-2.25 -0.17,-0.91 -1.28,-2.1 -3.33,-3.58 -4.12,-3.06 -9.75,-4.89 -16.9,-5.5 -4.34,-0.55 -6.57,-0.88 -6.7,-0.97 -0.78,-0.32 -3.7,0.01 -8.782,1.01 l -7.797,1.52 -4.082,4.32 c -4.242,4.69 -6.938,7.15 -8.059,7.37 -0.805,0.15 -2.066,1.13 -3.82,2.95 -1.766,1.8 -2.875,3.27 -3.36,4.43 -0.343,0.64 -0.605,2.03 -0.789,4.11 -0.171,2.09 -0.324,4.53 -0.425,7.3 -0.09,2.77 -0.137,4.21 -0.114,4.34 -0.047,0.93 0.024,1.92 0.215,2.94 0.758,3.84 1.723,6.46 2.949,7.87 0.61,0.7 1.422,2.47 2.442,5.33 2.648,7.57 4.746,11.97 6.273,13.2 1.258,1.04 2.887,2.78 4.883,5.21 3.281,4.16 7.957,7.12 14.047,8.86 3.449,0.86 7.759,1.02 12.929,0.48" /><path
         id="path108"
         style="fill:#ddaa3f;fill-opacity:1;fill-rule:nonzero;stroke:none"
         d="m 850.336,1225.36 31.602,16.4 c 0,0 2.785,46.15 0,46.13 -8.903,-0.05 -31.602,-16.39 -31.602,-16.39 0,0 -20.324,17.04 -31.598,16.39 -3.715,-0.21 0,-46.13 0,-46.13 l 31.598,-16.4" /><path
         id="path110"
         style="fill:#ddaa3f;fill-opacity:1;fill-rule:nonzero;stroke:none"
         d="m 996.711,1168.31 c 0,0 32.149,33.23 30.019,35.03 -6.79,5.75 -34.664,8.11 -34.664,8.11 0,0 -4.339,26.17 -13.324,33.01 -2.957,2.26 -30.019,-35.03 -30.019,-35.03 l 13.324,-33.01 34.664,-8.11" /><path
         id="path112"
         style="fill:#ddaa3f;fill-opacity:1;fill-rule:nonzero;stroke:none"
         d="m 1049.55,1083.01 c 1.29,3.49 -42.29,18.43 -42.29,18.43 l -27.658,-22.42 2.41,-35.52 c 0,0 41.198,-20.99 42.298,-18.43 3.5,8.18 -2.41,35.52 -2.41,35.52 0,0 23.74,11.82 27.65,22.42" /><path
         id="path114"
         style="fill:#ddaa3f;fill-opacity:1;fill-rule:nonzero;stroke:none"
         d="m 911.441,996.047 -20.988,-28.758 c 0,0 18.063,-42.566 20.551,-41.309 7.941,4.016 20.984,28.758 20.984,28.758 0,0 25.789,-6.211 35.598,-0.609 3.23,1.848 -20.551,41.309 -20.551,41.309 l -35.594,0.609" /><path
         id="path116"
         style="fill:#ddaa3f;fill-opacity:1;fill-rule:nonzero;stroke:none"
         d="m 759.133,990.973 c 0,0 -26.977,-37.551 -24.61,-39.024 7.559,-4.699 35.477,-2.984 35.477,-2.984 0,0 8.094,-25.262 17.977,-30.727 3.257,-1.8 24.613,39.024 24.613,39.024 l -17.985,30.726 -35.472,2.985" /><path
         id="path118"
         style="fill:#ddaa3f;fill-opacity:1;fill-rule:nonzero;stroke:none"
         d="m 656.273,1095.33 c 1.829,-8.71 22.368,-27.69 22.368,-27.69 0,0 -12.653,-23.32 -9.77,-34.24 0.949,-3.6 45.211,9.2 45.211,9.2 l 9.77,34.24 -22.372,27.69 c 0,0 -45.781,-6.47 -45.207,-9.2" /><path
         id="path120"
         style="fill:#ddaa3f;fill-opacity:1;fill-rule:nonzero;stroke:none"
         d="m 720.984,1167.96 33.7,11.49 10,34.16 c 0,0 -31.418,33.93 -33.332,31.91 -6.114,-6.48 -10,-34.17 -10,-34.17 0,0 -26.368,-2.9 -33.7,-11.49 -2.41,-2.84 33.332,-31.9 33.332,-31.9" /><path
         id="path122"
         style="fill:#ddaa3f;fill-opacity:1;fill-rule:nonzero;stroke:none"
         d="m 917.145,1037.22 c 6.953,6.8 12.679,14.9 16.918,23.75 4.32,8.81 6.781,18.61 7.851,28.08 2.195,19.13 -1.031,38.51 -8.844,55.83 -7.742,17.3 -20.058,33.01 -36.836,43.48 -4.179,2.59 -8.617,4.84 -13.285,6.58 -4.629,1.81 -9.488,3.13 -14.426,3.89 -2.46,0.45 -4.957,0.64 -7.445,0.78 -2.437,0.04 -5.098,0.07 -7.332,-0.07 -4.609,-0.16 -9.199,-0.7 -13.754,-1.36 -18.191,-2.86 -35.82,-10.2 -50.062,-21.83 -14.364,-11.47 -24.86,-27.16 -30.629,-43.9 -5.899,-16.76 -7.281,-34.45 -5.824,-51.43 h 2.41 c 1.523,16.75 5.261,33.17 12.515,47.64 3.657,7.18 7.922,13.98 13.133,19.9 5.203,5.92 11.078,11.14 17.551,15.41 12.894,8.65 28.051,13.35 43.336,14.76 3.84,0.27 7.683,0.47 11.531,0.31 3.746,-0.15 7.024,-0.65 10.434,-1.5 3.363,-0.79 6.64,-1.96 9.769,-3.5 3.153,-1.46 6.16,-3.31 9.004,-5.41 11.449,-8.33 20.449,-20.61 26.281,-34.18 5.844,-13.57 8.829,-28.52 7.875,-43.09 -0.523,-7.34 -1.937,-14.23 -4.652,-20.82 -2.68,-6.57 -6.48,-12.74 -11.328,-18.06 -9.609,-10.73 -22.973,-18.25 -37.633,-21.07 -7.301,-1.41 -15.101,-1.54 -22.551,-0.36 -7.375,1.25 -14.625,4.09 -20.929,8.56 -12.715,8.78 -21.157,24.11 -21.606,40 -0.176,3.96 0.219,7.93 0.961,11.82 0.797,3.82 2.094,7.53 3.91,10.95 3.633,6.82 9.262,12.51 15.91,16.06 6.59,3.67 14.086,5.28 21.25,4.81 3.543,-0.18 7.192,-0.94 10.336,-2.02 3.125,-1.15 5.985,-2.77 8.516,-4.72 5.027,-4 8.496,-9.55 10.148,-15.4 0.77,-2.95 1.149,-5.97 1.012,-8.98 -0.086,-1.49 -0.273,-3.02 -0.547,-4.47 -0.297,-1.34 -0.672,-2.64 -1.199,-3.87 -2.023,-5 -6.301,-9.05 -11.453,-11.02 -2.574,-1.01 -5.359,-1.38 -8.164,-1.23 -1.461,0.12 -2.723,0.22 -3.883,0.61 -1.207,0.31 -2.328,0.86 -3.418,1.49 -4.406,2.54 -7.34,7.68 -7.418,13.17 0.055,1.46 0.156,2.64 0.496,3.82 0.36,1.18 0.926,2.31 1.668,3.35 1.488,2.07 3.692,3.81 6.328,4.65 1.313,0.45 2.727,0.64 4.172,0.59 1.426,-0.01 2.625,-0.27 3.887,-0.79 2.492,-0.99 4.746,-3.2 5.758,-6.08 0.504,-1.42 0.722,-3.02 0.664,-4.62 -0.074,-1.49 -0.508,-3.04 -1.41,-4.4 -1.735,-2.76 -5.137,-4.77 -9.043,-4.7 l -0.446,-2.37 c 4.414,-1.53 10.063,-0.51 13.895,3.15 1.953,1.77 3.43,4.14 4.258,6.77 0.812,2.53 1.05,5.25 0.699,7.96 -0.664,5.43 -3.758,10.66 -8.52,14.01 -2.355,1.66 -5.23,2.81 -7.992,3.34 -2.726,0.57 -5.605,0.71 -8.437,0.31 -5.649,-0.75 -11.231,-3.35 -15.285,-7.67 -2.047,-2.14 -3.782,-4.62 -5.051,-7.34 -1.27,-2.74 -2.008,-5.73 -2.418,-8.47 -1.641,-11.39 3.472,-23.66 13.16,-30.63 4.703,-3.52 10.812,-5.69 16.312,-6.32 5.602,-0.72 11.415,-0.17 16.84,1.56 10.899,3.4 20.153,11.75 24.739,22.35 1.125,2.65 1.949,5.41 2.531,8.22 0.535,2.68 0.797,5.38 0.828,8.11 0.09,5.44 -0.824,10.89 -2.637,15.99 -1.781,5.11 -4.547,9.82 -7.918,13.95 -3.437,4.1 -7.578,7.54 -12.109,10.22 -4.535,2.68 -9.527,4.5 -14.602,5.4 -5.078,0.85 -9.914,1.01 -14.816,0.47 -9.742,-1.03 -18.934,-4.76 -26.492,-10.35 -7.516,-5.65 -13.571,-13.03 -17.285,-21.44 -1.938,-4.16 -3.207,-8.59 -4.02,-13.06 -0.805,-4.42 -1.062,-8.92 -0.977,-13.41 0.254,-8.97 2.356,-17.89 6.122,-26.11 1.89,-4.11 4.257,-8.01 6.968,-11.67 2.684,-3.68 5.762,-7.12 9.223,-10.16 6.887,-6.12 15.133,-10.94 24.168,-13.76 8.992,-2.75 18.312,-3.89 27.812,-3.45 9.469,0.49 18.887,2.85 27.7,6.69 8.742,3.99 16.875,9.48 23.797,16.3" /><path
         id="path124"
         style="fill:#cc792b;fill-opacity:1;fill-rule:nonzero;stroke:none"
         d="m 618.617,680.891 h 6.211 V 658.93 c 0,-0.942 -0.012,-1.989 -0.027,-3.121 -0.024,-1.137 -0.059,-2.239 -0.102,-3.321 -0.047,-1.078 -0.09,-2.027 -0.129,-2.867 -0.035,-0.851 -0.074,-1.449 -0.113,-1.832 h 0.203 l 21.082,33.102 h 7.91 V 639.449 H 647.5 v 21.813 c 0,1.008 0.016,2.117 0.055,3.308 0.039,1.192 0.086,2.34 0.148,3.461 0.055,1.11 0.11,2.09 0.168,2.938 0.055,0.863 0.094,1.461 0.109,1.82 h -0.25 l -21.144,-33.34 h -7.969 v 41.442" /><path
         id="path126"
         style="fill:#cc792b;fill-opacity:1;fill-rule:nonzero;stroke:none"
         d="m 690.953,671.199 c 0,-2.801 -0.933,-5.027 -2.793,-6.699 -1.863,-1.68 -4.281,-2.738 -7.269,-3.191 v -0.2 c 3.593,-0.437 6.339,-1.507 8.25,-3.211 1.906,-1.718 2.863,-3.957 2.863,-6.707 0,-2.421 -0.633,-4.562 -1.899,-6.41 -1.265,-1.851 -3.16,-3.301 -5.671,-4.332 -2.516,-1.039 -5.633,-1.57 -9.356,-1.57 -2.699,0 -5.168,0.191 -7.394,0.562 -2.231,0.368 -4.215,0.938 -5.954,1.719 v 5.891 c 1.188,-0.563 2.497,-1.063 3.926,-1.461 1.43,-0.399 2.883,-0.719 4.367,-0.93 1.485,-0.219 2.875,-0.328 4.176,-0.328 3.707,0 6.453,0.617 8.25,1.867 1.793,1.25 2.696,3.02 2.696,5.301 0,2.34 -1.165,4.059 -3.489,5.129 -2.324,1.082 -5.508,1.609 -9.551,1.609 h -4.933 v 5.442 h 4.621 c 3.004,0 5.414,0.269 7.227,0.8 1.812,0.532 3.128,1.29 3.941,2.27 0.812,0.98 1.219,2.148 1.219,3.52 0,1.789 -0.715,3.191 -2.145,4.21 -1.426,1.008 -3.39,1.508 -5.902,1.508 -2.387,0 -4.477,-0.316 -6.266,-0.957 -1.797,-0.64 -3.508,-1.492 -5.129,-2.519 l -3.09,4.558 c 1.266,0.871 2.649,1.629 4.149,2.289 1.504,0.661 3.164,1.192 4.976,1.563 1.813,0.379 3.805,0.566 5.981,0.566 3.019,0 5.586,-0.437 7.695,-1.316 2.106,-0.883 3.719,-2.102 4.832,-3.641 1.114,-1.551 1.672,-3.332 1.672,-5.332" /><path
         id="path128"
         style="fill:#cc792b;fill-opacity:1;fill-rule:nonzero;stroke:none"
         d="m 746.504,639.449 h -6.805 v 35.672 H 727.91 c -0.246,-1.949 -0.508,-4.031 -0.793,-6.23 -0.281,-2.2 -0.578,-4.411 -0.879,-6.621 -0.304,-2.211 -0.613,-4.309 -0.922,-6.29 -0.312,-1.98 -0.628,-3.73 -0.949,-5.242 -0.492,-2.539 -1.133,-4.687 -1.914,-6.449 -0.785,-1.769 -1.836,-3.109 -3.156,-4.039 -1.324,-0.93 -3.055,-1.391 -5.192,-1.391 -0.718,0 -1.417,0.063 -2.093,0.18 -0.684,0.121 -1.301,0.281 -1.844,0.473 v 5.609 c 0.457,-0.172 0.937,-0.312 1.457,-0.441 0.52,-0.121 1.074,-0.18 1.656,-0.18 0.985,0 1.778,0.359 2.367,1.09 0.602,0.73 1.094,1.769 1.493,3.121 0.394,1.348 0.769,2.949 1.136,4.809 0.207,1.109 0.457,2.582 0.758,4.429 0.305,1.84 0.637,3.981 0.992,6.403 0.364,2.41 0.735,5.019 1.121,7.828 0.391,2.8 0.762,5.711 1.118,8.711 h 24.238 v -41.442" /><path
         id="path130"
         style="fill:#cc792b;fill-opacity:1;fill-rule:nonzero;stroke:none"
         d="m 762.555,660.238 c 0,-3.207 0.429,-5.968 1.297,-8.297 0.875,-2.332 2.207,-4.132 4.015,-5.39 1.801,-1.25 4.121,-1.879 6.957,-1.879 2.852,0 5.176,0.629 6.973,1.879 1.797,1.258 3.117,3.058 3.969,5.39 0.851,2.329 1.277,5.09 1.277,8.297 0,4.844 -0.969,8.653 -2.906,11.391 -1.938,2.762 -5.024,4.141 -9.254,4.141 -2.836,0 -5.164,-0.629 -6.988,-1.872 -1.825,-1.257 -3.168,-3.039 -4.043,-5.339 -0.868,-2.321 -1.297,-5.098 -1.297,-8.321 z m 31.629,0 c 0,-3.207 -0.403,-6.109 -1.207,-8.726 -0.801,-2.621 -2.004,-4.864 -3.614,-6.742 -1.605,-1.879 -3.617,-3.329 -6.035,-4.348 -2.422,-1.024 -5.258,-1.543 -8.504,-1.543 -3.308,0 -6.176,0.519 -8.601,1.543 -2.434,1.019 -4.442,2.469 -6.039,4.359 -1.598,1.899 -2.793,4.149 -3.586,6.778 -0.789,2.621 -1.188,5.531 -1.188,8.73 0,4.27 0.699,8 2.11,11.18 1.406,3.191 3.55,5.66 6.433,7.422 2.883,1.769 6.524,2.648 10.93,2.648 4.305,0 7.887,-0.867 10.742,-2.629 2.848,-1.762 4.992,-4.23 6.414,-7.41 1.43,-3.191 2.145,-6.941 2.145,-11.262" /><path
         id="path132"
         style="fill:#cc792b;fill-opacity:1;fill-rule:nonzero;stroke:none"
         d="m 835.766,639.449 h -6.778 v 18.711 h -19.105 v -18.711 h -6.801 v 41.442 h 6.801 v -16.95 h 19.105 v 16.95 h 6.778 v -41.442" /><path
         id="path134"
         style="fill:#cc792b;fill-opacity:1;fill-rule:nonzero;stroke:none"
         d="m 871.449,680.891 v -5.77 h -17.941 v -35.672 h -6.805 v 41.442 h 24.746" /><path
         id="path136"
         style="fill:#cc792b;fill-opacity:1;fill-rule:nonzero;stroke:none"
         d="m 874.68,652.211 v 5.641 h 14.621 v -5.641 H 874.68" /><path
         id="path138"
         style="fill:#cc792b;fill-opacity:1;fill-rule:nonzero;stroke:none"
         d="m 927.91,639.449 h -6.805 v 35.672 h -11.789 c -0.246,-1.949 -0.507,-4.031 -0.796,-6.23 -0.278,-2.2 -0.575,-4.411 -0.875,-6.621 -0.305,-2.211 -0.614,-4.309 -0.922,-6.29 -0.313,-1.98 -0.629,-3.73 -0.95,-5.242 -0.492,-2.539 -1.132,-4.687 -1.914,-6.449 -0.785,-1.769 -1.836,-3.109 -3.16,-4.039 -1.32,-0.93 -3.051,-1.391 -5.187,-1.391 -0.719,0 -1.418,0.063 -2.094,0.18 -0.684,0.121 -1.301,0.281 -1.844,0.473 v 5.609 c 0.453,-0.172 0.938,-0.312 1.457,-0.441 0.52,-0.121 1.074,-0.18 1.657,-0.18 0.984,0 1.773,0.359 2.367,1.09 0.601,0.73 1.093,1.769 1.492,3.121 0.394,1.348 0.769,2.949 1.137,4.809 0.207,1.109 0.457,2.582 0.757,4.429 0.305,1.84 0.633,3.981 0.993,6.403 0.363,2.41 0.734,5.019 1.121,7.828 0.39,2.8 0.761,5.711 1.117,8.711 h 24.238 v -41.442" /><path
         id="path140"
         style="fill:#cc792b;fill-opacity:1;fill-rule:nonzero;stroke:none"
         d="m 938.82,680.891 h 6.207 V 658.93 c 0,-0.942 -0.007,-1.989 -0.027,-3.121 -0.023,-1.137 -0.055,-2.239 -0.102,-3.321 -0.043,-1.078 -0.089,-2.027 -0.128,-2.867 -0.032,-0.851 -0.071,-1.449 -0.11,-1.832 h 0.199 l 21.086,33.102 h 7.91 v -41.442 h -6.152 v 21.813 c 0,1.008 0.016,2.117 0.055,3.308 0.039,1.192 0.086,2.34 0.144,3.461 0.059,1.11 0.114,2.09 0.168,2.938 0.059,0.863 0.098,1.461 0.114,1.82 h -0.25 l -21.149,-33.34 h -7.965 v 41.442" /><path
         id="path142"
         style="fill:#cc792b;fill-opacity:1;fill-rule:nonzero;stroke:none"
         d="m 1002.4,675.711 c -1.99,0 -3.759,-0.359 -5.318,-1.09 -1.562,-0.711 -2.879,-1.742 -3.953,-3.101 -1.078,-1.34 -1.902,-2.981 -2.469,-4.899 -0.562,-1.922 -0.847,-4.082 -0.847,-6.473 0,-3.218 0.453,-5.976 1.359,-8.296 0.906,-2.313 2.289,-4.09 4.141,-5.321 1.847,-1.242 4.195,-1.859 7.027,-1.859 1.76,0 3.47,0.168 5.13,0.508 1.66,0.34 3.39,0.8 5.16,1.379 v -5.77 c -1.69,-0.66 -3.38,-1.141 -5.1,-1.449 -1.72,-0.301 -3.71,-0.461 -5.96,-0.461 -4.23,0 -7.742,0.891 -10.523,2.652 -2.785,1.75 -4.871,4.231 -6.234,7.418 -1.372,3.192 -2.055,6.93 -2.055,11.223 0,3.148 0.43,6.008 1.305,8.617 0.867,2.609 2.132,4.859 3.792,6.762 1.665,1.898 3.719,3.359 6.165,4.39 2.449,1.028 5.253,1.547 8.4,1.547 2.09,0 4.13,-0.238 6.14,-0.699 2.02,-0.457 3.88,-1.117 5.6,-1.969 l -2.38,-5.609 c -1.44,0.687 -2.94,1.269 -4.51,1.758 -1.57,0.492 -3.19,0.742 -4.87,0.742" /><path
         id="path144"
         style="fill:#cc792b;fill-opacity:1;fill-rule:nonzero;stroke:none"
         d="m 1035.9,639.449 h -6.83 v 35.672 h -12.13 v 5.77 H 1048 v -5.77 h -12.1 v -35.672" /><path
         id="path146"
         style="fill:#cc792b;fill-opacity:1;fill-rule:nonzero;stroke:none"
         d="m 1074.19,656.801 -3.94,11.34 c -0.15,0.488 -0.36,1.191 -0.65,2.078 -0.29,0.902 -0.57,1.82 -0.85,2.75 -0.29,0.941 -0.52,1.722 -0.71,2.371 -0.19,-0.77 -0.42,-1.649 -0.7,-2.602 -0.27,-0.949 -0.53,-1.84 -0.79,-2.668 -0.25,-0.832 -0.45,-1.48 -0.58,-1.929 l -3.97,-11.34 z m 5.81,-17.352 -4.05,11.52 h -15.85 l -4.05,-11.52 h -7.17 l 15.42,41.61 h 7.54 l 15.39,-41.61 H 1080" /><path
         id="path148"
         style="fill:#cc792b;fill-opacity:1;fill-rule:nonzero;stroke:none"
         d="m 697.535,731.918 h -23.664 l -35.629,49.816 v -49.816 h -20.844 v 98.273 h 20.844 v -47.586 l 35.227,47.586 h 22.187 l -35.836,-47.179 37.715,-51.094" /><path
         id="path150"
         style="fill:#cc792b;fill-opacity:1;fill-rule:nonzero;stroke:none"
         d="m 790.441,731.918 h -20.773 v 42.414 h -38.922 v -42.414 h -20.844 v 98.273 h 20.844 v -38.515 h 38.922 v 38.515 h 20.773 v -98.273" /><path
         id="path152"
         style="fill:#cc792b;fill-opacity:1;fill-rule:nonzero;stroke:none"
         d="m 815.242,830.191 h 18.762 v -47.449 c 0,-2.328 -0.035,-4.914 -0.102,-7.738 -0.066,-2.82 -0.164,-5.586 -0.269,-8.297 -0.11,-2.707 -0.215,-5.082 -0.301,-7.098 -0.094,-2.015 -0.184,-3.359 -0.269,-4.031 h 0.402 l 45.375,74.613 h 24.941 V 731.918 H 885.23 v 47.184 c 0,2.519 0.04,5.25 0.133,8.207 0.09,2.957 0.207,5.824 0.371,8.601 0.157,2.785 0.301,5.195 0.438,7.231 0.133,2.039 0.223,3.394 0.266,4.066 h -0.536 L 840.32,731.918 h -25.078 v 98.273" /><path
         id="path154"
         style="fill:#cc792b;fill-opacity:1;fill-rule:nonzero;stroke:none"
         d="m 990.703,830.191 v -17.207 h -41.277 v -81.066 h -20.844 v 98.273 h 62.121" /><path
         id="path156"
         style="fill:#cc792b;fill-opacity:1;fill-rule:nonzero;stroke:none"
         d="m 1053.89,772.789 -7.12,22.852 c -0.45,1.523 -1.05,3.492 -1.78,5.886 -0.74,2.399 -1.48,4.84 -2.22,7.325 -0.74,2.488 -1.34,4.648 -1.78,6.496 -0.45,-1.848 -1.07,-4.121 -1.85,-6.832 -0.79,-2.707 -1.54,-5.274 -2.25,-7.692 -0.72,-2.418 -1.24,-4.152 -1.55,-5.183 l -7.06,-22.852 z m 12.1,-40.871 -7.12,23.391 h -35.84 l -7.12,-23.391 h -22.453 l 34.693,98.68 h 25.47 l 34.83,-98.68 h -22.46" /><path
         id="path158"
         style="fill:#cc792b;fill-opacity:1;fill-rule:nonzero;stroke:none"
         d="M 722.777,448.922 H 622.746 v 17.879 l 38.297,38.808 c 7.406,7.539 13.508,14.063 18.285,19.551 4.785,5.488 8.336,10.699 10.66,15.61 2.325,4.921 3.489,10.269 3.489,16.062 0,7.137 -2.055,12.547 -6.164,16.219 -4.11,3.679 -9.532,5.508 -16.27,5.508 -6.395,0 -12.309,-1.258 -17.73,-3.789 -5.422,-2.532 -11.036,-6.11 -16.825,-10.758 l -13.031,15.66 c 4.106,3.5 8.5,6.699 13.184,9.598 4.679,2.902 9.914,5.21 15.711,6.921 5.793,1.719 12.394,2.579 19.804,2.579 9.36,0 17.446,-1.661 24.25,-5 6.805,-3.329 12.039,-7.969 15.711,-13.899 3.672,-5.93 5.508,-12.832 5.508,-20.711 0,-7.949 -1.582,-15.301 -4.746,-22.019 -3.168,-6.743 -7.68,-13.391 -13.539,-19.969 -5.863,-6.563 -12.836,-13.692 -20.918,-21.363 l -25.563,-24.957 v -1.122 h 69.918 v -20.808" /><path
         id="path160"
         style="fill:#cc792b;fill-opacity:1;fill-rule:nonzero;stroke:none"
         d="m 764.711,522.891 c 0,-12.461 0.824,-22.871 2.477,-31.219 1.648,-8.363 4.394,-14.602 8.234,-18.75 3.84,-4.141 8.957,-6.211 15.359,-6.211 6.399,0 11.516,2.051 15.36,6.16 3.839,4.109 6.617,10.34 8.336,18.688 1.718,8.363 2.574,18.8 2.574,31.332 0,12.39 -0.84,22.757 -2.528,31.121 -1.683,8.347 -4.441,14.629 -8.285,18.84 -3.836,4.207 -8.992,6.32 -15.457,6.32 -6.465,0 -11.601,-2.113 -15.41,-6.32 -3.805,-4.211 -6.535,-10.493 -8.183,-18.84 -1.653,-8.364 -2.477,-18.731 -2.477,-31.121 z m 76.387,0 c 0,-11.93 -0.922,-22.59 -2.778,-31.981 -1.851,-9.398 -4.765,-17.371 -8.742,-23.898 -3.973,-6.532 -9.16,-11.512 -15.555,-14.953 -6.402,-3.438 -14.144,-5.161 -23.242,-5.161 -11.386,0 -20.781,3.024 -28.191,9.043 -7.41,6.028 -12.899,14.719 -16.473,26.079 -3.57,11.351 -5.351,24.968 -5.351,40.871 0,15.898 1.629,29.519 4.898,40.871 3.266,11.34 8.574,20.058 15.918,26.117 7.34,6.062 17.074,9.09 29.199,9.09 11.449,0 20.899,-3.02 28.344,-9.039 7.441,-6.032 12.965,-14.719 16.566,-26.078 3.606,-11.34 5.407,-25 5.407,-40.961" /><path
         id="path162"
         style="fill:#cc792b;fill-opacity:1;fill-rule:nonzero;stroke:none"
         d="M 959.418,448.922 H 859.387 v 17.879 l 38.293,38.808 c 7.41,7.539 13.504,14.063 18.289,19.551 4.785,5.488 8.34,10.699 10.664,15.61 2.328,4.921 3.488,10.269 3.488,16.062 0,7.137 -2.062,12.547 -6.16,16.219 -4.113,3.679 -9.543,5.508 -16.273,5.508 -6.407,0 -12.313,-1.258 -17.735,-3.789 -5.43,-2.532 -11.031,-6.11 -16.824,-10.758 l -13.039,15.66 c 4.113,3.5 8.508,6.699 13.195,9.598 4.676,2.902 9.91,5.21 15.715,6.921 5.789,1.719 12.391,2.579 19.793,2.579 9.363,0 17.449,-1.661 24.258,-5 6.797,-3.329 12.039,-7.969 15.711,-13.899 3.672,-5.93 5.508,-12.832 5.508,-20.711 0,-7.949 -1.59,-15.301 -4.754,-22.019 -3.164,-6.743 -7.676,-13.391 -13.536,-19.969 -5.859,-6.563 -12.832,-13.692 -20.917,-21.363 l -25.567,-24.957 v -1.122 h 69.922 v -20.808" /><path
         id="path164"
         style="fill:#cc792b;fill-opacity:1;fill-rule:nonzero;stroke:none"
         d="m 1039.65,501.059 v 36.679 c 0,3.032 0.05,6.114 0.15,9.25 0.1,3.121 0.21,6.141 0.35,9.043 0.14,2.891 0.27,5.571 0.41,8.028 0.13,2.461 0.23,4.5 0.3,6.113 h -0.81 c -1.28,-2.692 -2.69,-5.442 -4.25,-8.231 -1.54,-2.793 -3.19,-5.511 -4.95,-8.132 l -36.373,-52.75 z m 43.45,-19.707 h -20.01 v -32.43 h -23.44 v 32.43 h -67.197 v 17.988 l 67.497,97.711 h 23.14 v -95.992 h 20.01 v -19.707" /></g></g></svg>